<svg version="1.1" id="Layer_1" xmlns="http://www.w3.org/2000/svg" xmlns:xlink="http://www.w3.org/1999/xlink" x="0px" y="0px"
	 viewBox="-139 51 512 512" style="enable-background:new -139 51 512 512;" xml:space="preserve">
<g id="github-icon">
	<path d="M178.6,507.9c-4.2,0-6.9-1.4-8.6-2.8c-2.9-2.4-4.5-6.2-4.5-10.5v-56.5c0-22.2-9.2-32.5-13.1-35.9l-5.2-4.5l6.8-0.8
		c28.2-3.1,48.1-10.2,62.6-22.4c19.4-16.2,28.8-41.1,28.8-76.3c0-20.6-6.9-38.5-20.4-53.3l-1.3-1.4l0.7-1.8
		c2.2-5.3,8.4-24.5-1.5-50.8c-6.9-1-25,2.2-52.7,21l-1.1,0.8l-1.3-0.4c-15.8-4.4-33.4-6.7-50.8-6.8c-17.4,0.1-34.9,2.4-50.8,6.8
		l-1.3,0.4l-1.1-0.8c-27.7-18.8-45.8-22-52.8-21c-9.9,26.4-3.6,45.5-1.4,50.8l0.7,1.8L9,245.1c-13.6,14.8-20.4,32.8-20.4,53.3
		c0,78.4,48.7,94,91.2,98.8l6.8,0.8l-5.1,4.5c-3.6,3.2-10,10.7-12.1,25.7l-0.2,1.6l-1.5,0.7c-6.9,3.1-17.4,6.5-29,5.5
		c-14.6-1.3-26.3-9.3-34.8-23.8c-0.1-0.2-10.4-18.4-29.1-19.8c-2.4,0-5.2,0.5-6.2,1.1c0.3,0.6,1.5,2.5,6.4,5.8c2,1,15,8.5,24.1,31.7
		l0.1,0.2c0.5,1.4,12,34,65.7,22.3l3.6-0.8v42.1c0,4.3-1.6,8.1-4.5,10.4c-2.2,1.8-6.1,3.7-12.7,2.4l-0.4-0.1
		c-41.3-13.7-76.8-39.6-102.6-74.9c-26.4-36-40.3-78.7-40.3-123.4c0-115.2,93.8-209,209-209s209,93.8,209,209
		c0,90.1-57.4,169.8-142.8,198.3l-0.4,0.1C181.3,507.8,179.9,507.9,178.6,507.9z M160.7,402.2c6.9,8.6,10.8,21.4,10.8,35.9v56.5
		c0,1.2,0.2,4.1,2.3,5.8c1.7,1.4,4.3,1.8,7.7,1.1C264.3,473.9,320,396.6,320,309.1c0-111.9-91.1-203-203-203s-203,91.1-203,203
		c0,43.5,13.5,84.9,39.2,119.9c25.1,34.2,59.5,59.3,99.5,72.7c3.4,0.6,5.9,0.2,7.6-1.2c2.1-1.7,2.3-4.6,2.3-5.8V460
		c-16.6,3.1-38.5,3.6-54.9-8.7C-2.7,443.5-6.2,434.2-6.6,433c-8.7-22.2-21.2-28.4-21.3-28.5l-0.4-0.2c-5-3.4-10.5-7.9-9-12.7
		c1.6-5,9.7-5.3,12.2-5.3l0.2,0c22.1,1.6,33.5,21.9,34,22.8c5.6,9.6,22.1,30.2,54.6,16.5c1.5-9.2,4.8-17.2,9.6-23.2
		c-26.3-3.7-45.4-11.1-59.8-23.2c-20.7-17.5-30.8-43.9-30.8-80.9c0-21.4,7-40.2,20.8-55.9c-2.8-7.8-7.9-28.2,2.6-55l0.5-1.3l1.4-0.4
		c0.8-0.2,18.8-5.6,58.1,20.7c16.2-4.4,33.3-6.6,51-6.7c17.5,0.1,35.1,2.4,51.1,6.7c39.3-26.3,57.3-21,58-20.7l1.4,0.4l0.5,1.3
		c10.6,26.7,5.5,47.2,2.7,55c13.8,15.7,20.8,34.5,20.8,55.9c0,37-10.1,63.5-30.9,80.9C202.3,394.4,178.7,399.8,160.7,402.2z"/>
</g>
</svg>
