<?xml version="1.0" encoding="utf-8"?>
<!-- Generator: Adobe Illustrator 19.2.0, SVG Export Plug-In . SVG Version: 6.00 Build 0)  -->
<svg version="1.1" id="Layer_1" xmlns="http://www.w3.org/2000/svg" xmlns:xlink="http://www.w3.org/1999/xlink" x="0px" y="0px"
	 viewBox="0 0 960 655" style="enable-background:new 0 0 960 655;" xml:space="preserve">
<style type="text/css">
	.st0{fill:none;}
	.st1{fill:#016E96;}
</style>
<rect y="1" class="st0" width="960" height="655"/>
<path class="st1" d="M672.1,533.7l-0.7-4.4l0.9-0.1l2.2,2.6l-0.5-2.9l0.8-0.1l0.7,4.4l-0.9,0.1l-2.2-2.6l0.5,2.8L672.1,533.7z
	 M666.5,536l-1.4-3.2l2.2,2.8l0.8-0.3l-0.6-3.5l1.4,3.2l0.8-0.3l-1.8-4l-1.2,0.5l0.5,3.1l-2-2.4l-1.2,0.5l1.8,4L666.5,536z
	 M671.3,534.1l-1.3-4.2l-0.9,0.3l1.3,4.2L671.3,534.1z M706.9,556.5c0.2,0.1,0.4,0.2,0.6,0.4c0.2,0.2,0.3,0.4,0.4,0.6
	c0.1,0.3,0.2,0.6,0.2,1c0,0.7-0.2,1.2-0.6,1.6c-0.4,0.4-1,0.6-1.7,0.6c-0.7,0-1.3-0.2-1.7-0.6c-0.4-0.4-0.6-0.9-0.6-1.6
	c0-0.7,0.2-1.2,0.6-1.6c0.4-0.4,1-0.6,1.7-0.6C706.2,556.3,706.6,556.4,706.9,556.5z M706.9,557.6c-0.3-0.2-0.6-0.3-1.1-0.3
	c-0.5,0-0.9,0.1-1.1,0.3c-0.3,0.2-0.4,0.5-0.4,0.9c0,0.4,0.1,0.6,0.4,0.9c0.3,0.2,0.6,0.3,1.2,0.3c0.5,0,0.9-0.1,1.1-0.3
	c0.2-0.2,0.4-0.5,0.4-0.9C707.3,558.1,707.2,557.8,706.9,557.6z M662.3,538.9l-2.1-2.7l2.8,2.2l0.7-0.5l-1.4-3.3l2.1,2.7l0.7-0.5
	l-2.7-3.5l-1.1,0.8l1.2,2.9l-2.5-1.9l-1.1,0.8l2.7,3.5L662.3,538.9z M677.4,532.8c0.3,0.2,0.7,0.3,1.2,0.3c0.4,0,0.7-0.1,1.1-0.2
	c0.4-0.1,0.6-0.3,0.8-0.5v-1.8h-1.9v0.7h1v0.6c-0.1,0.1-0.3,0.2-0.5,0.3c-0.2,0.1-0.4,0.1-0.6,0.1c-0.4,0-0.7-0.1-0.9-0.4
	c-0.2-0.3-0.4-0.7-0.4-1.2c0-0.5,0.1-0.9,0.3-1.1c0.2-0.2,0.5-0.4,0.9-0.4c0.3,0,0.5,0.1,0.6,0.2c0.2,0.1,0.3,0.3,0.4,0.5l0.9-0.2
	c-0.1-0.4-0.3-0.7-0.6-1c-0.3-0.2-0.7-0.3-1.3-0.3c-0.4,0-0.8,0.1-1.1,0.2c-0.4,0.2-0.7,0.5-0.8,0.8c-0.2,0.4-0.3,0.8-0.3,1.2
	c0,0.4,0.1,0.8,0.3,1.2C676.8,532.4,677,532.6,677.4,532.8z M697.6,541.8l3.6-2.5l1,1.4c0.2,0.3,0.3,0.5,0.4,0.7
	c0.1,0.2,0.1,0.3,0.1,0.5c0,0.2,0,0.3-0.1,0.5c-0.1,0.2-0.2,0.3-0.3,0.4c-0.2,0.1-0.4,0.2-0.6,0.2c-0.2,0-0.4,0-0.6-0.1
	c0.1,0.3,0.1,0.5,0,0.7c-0.1,0.2-0.2,0.4-0.4,0.6c-0.2,0.1-0.4,0.2-0.6,0.2c-0.2,0-0.4,0-0.6-0.1c-0.2-0.1-0.4-0.2-0.5-0.4
	c-0.1-0.1-0.3-0.4-0.6-0.9L697.6,541.8z M700.3,541l0.3,0.5c0.2,0.3,0.3,0.5,0.4,0.5c0.1,0.1,0.2,0.2,0.3,0.2c0.1,0,0.2,0,0.4-0.1
	c0.1-0.1,0.2-0.2,0.2-0.3c0-0.1,0-0.2-0.1-0.4c0-0.1-0.2-0.3-0.4-0.6l-0.3-0.4L700.3,541z M698.8,542.1l0.5,0.7
	c0.2,0.3,0.3,0.4,0.4,0.5c0.1,0.1,0.2,0.1,0.3,0.2c0.1,0,0.3,0,0.4-0.1c0.1-0.1,0.2-0.2,0.2-0.3c0-0.1,0-0.2,0-0.3
	c0-0.1-0.2-0.4-0.4-0.7l-0.4-0.6L698.8,542.1z M691,536.4l2.4-3.7l1.2,0.8c0.5,0.3,0.7,0.5,0.9,0.6c0.2,0.2,0.3,0.4,0.3,0.7
	c0,0.3-0.1,0.6-0.3,0.9c-0.1,0.2-0.3,0.4-0.5,0.5c-0.2,0.1-0.4,0.2-0.6,0.2c-0.2,0-0.4,0-0.5-0.1c-0.2-0.1-0.5-0.2-0.8-0.5l-0.5-0.3
	l-0.9,1.4L691,536.4z M693.1,534.8l0.4,0.3c0.3,0.2,0.5,0.3,0.6,0.3c0.1,0,0.2,0,0.4,0c0.1,0,0.2-0.1,0.3-0.2
	c0.1-0.1,0.1-0.3,0.1-0.4c0-0.1-0.1-0.3-0.2-0.4c-0.1-0.1-0.3-0.2-0.5-0.4l-0.4-0.2L693.1,534.8z M695,538.6c0,0.2,0,0.4,0.1,0.6
	c0.1,0.2,0.3,0.5,0.6,0.8c0.3,0.2,0.5,0.4,0.7,0.5c0.2,0.1,0.4,0.1,0.6,0.1c0.2,0,0.4-0.1,0.6-0.2c0.2-0.1,0.5-0.4,0.8-0.8l1.6-1.7
	l-0.7-0.6l-1.7,1.8c-0.2,0.3-0.4,0.4-0.5,0.5c-0.1,0.1-0.3,0.1-0.4,0.1c-0.2,0-0.3-0.1-0.5-0.3c-0.2-0.2-0.3-0.3-0.3-0.5
	c0-0.2,0-0.3,0.1-0.5c0.1-0.1,0.2-0.3,0.5-0.6l1.6-1.7l-0.7-0.6l-1.6,1.7c-0.3,0.4-0.6,0.7-0.7,0.9C695,538.2,695,538.4,695,538.6z
	 M683.9,533.5l-0.9-0.2l1.2-4.2l1.8,0.5c0.5,0.1,0.8,0.3,1,0.4c0.2,0.1,0.3,0.3,0.4,0.5c0.1,0.2,0.1,0.5,0,0.7
	c-0.1,0.3-0.3,0.6-0.5,0.7c-0.2,0.2-0.6,0.2-1,0.2c0.2,0.2,0.3,0.3,0.4,0.5c0.1,0.2,0.2,0.4,0.3,0.8l0.3,1l-1-0.3l-0.4-1.1
	c-0.1-0.4-0.2-0.6-0.3-0.8c-0.1-0.1-0.1-0.2-0.2-0.3c-0.1-0.1-0.2-0.1-0.4-0.2l-0.2-0.1L683.9,533.5z M684.6,531.1l0.6,0.2
	c0.4,0.1,0.7,0.2,0.8,0.2c0.1,0,0.2,0,0.3-0.1c0.1-0.1,0.1-0.2,0.2-0.3c0-0.1,0-0.3,0-0.4c-0.1-0.1-0.1-0.2-0.3-0.3
	c-0.1,0-0.3-0.1-0.6-0.2l-0.7-0.2L684.6,531.1z M702.1,549.7l4.1-1.7l-0.3-0.8l-4.1,1.7L702.1,549.7z M690.4,536l0.3-0.7l-2.3-1
	l0.5-1.1l2,0.9l0.3-0.7l-2-0.9l0.4-0.9l2.2,1l0.3-0.7l-3-1.3l-1.8,4L690.4,536z M701.6,548.2l0.7-0.3l-1-2l3.2-1.7l-0.4-0.8
	l-3.9,2.1L701.6,548.2z M660.6,573.8l-2.4,1.1l-1.6-1.8l0.2,2.4l-2.4,1l2.6,0.7l0.3,2.7l1.3-2.3l2.5,0.5l-1.7-2L660.6,573.8z
	 M695.1,560.7l-0.6,0.4c0,0-0.4,0.3-0.6,0.4c-0.2,0.1-0.1,0.8-0.1,0.8v1.4l0.5,1.2l0.3,0.8l0.2,0.8l0.7-1.5c0,0,0-1.2,0-1.4
	c0-0.2,0-1,0.1-1.2c0-0.2,0.3-1,0.3-1l-0.3-1.1L695.1,560.7z M700.3,573.1l-1.9,1.9l-2.2-1.1l1.1,2.2l-1.8,1.9l2.7-0.4l1.3,2.4
	l0.3-2.6l2.6-0.5l-2.4-1.2L700.3,573.1z M701.9,558c0,12.9-10.5,23.4-23.4,23.4c-12.9,0-23.4-10.5-23.4-23.4
	c0-12.9,10.5-23.4,23.4-23.4C691.4,534.6,701.9,545.1,701.9,558z M656.8,563.8h2c0.1-0.4,0.9-1.1,3.2-1.3c0.2-0.3,0.4-0.7,0.4-1.2
	c0-0.6,0-1.1-0.1-1.7c-0.1-0.6-0.2-1.1-0.4-1.6c-0.2-0.5-0.3-0.8-0.4-0.9c-0.2-0.2-0.4-0.2-0.6-0.1c-0.2,0.1-0.4,0.2-0.5,0.4
	c-0.2,0.2-0.3,0.3-0.4,0.5c-0.1,0.1-0.1,0.2-0.1,0.1c0-0.2,0.1-0.5,0.2-0.9c0.1-0.4,0.4-0.6,0.9-0.7c-0.1-0.2-0.3-0.3-0.6-0.3
	c-0.3-0.1-0.5-0.1-0.5-0.1c-0.1,0.2-0.2,0.4-0.2,0.6c-0.1,0.2-0.1,0.5-0.1,0.7c-0.1-0.2-0.2-0.4-0.2-0.7c0-0.2,0-0.5,0-0.7
	c-0.2,0-0.5,0.2-0.8,0.5c-0.3,0.3-0.5,0.6-0.6,0.8c0-0.5,0-0.9,0.2-1c0.2-0.1,0.3-0.3,0.4-0.4c-0.1-0.1-0.2-0.3-0.1-0.6
	c0.1-0.3,0.1-0.4,0.3-0.6c0.2-0.2,0.5-0.2,0.7-0.1c0.2,0.1,0.4,0.1,0.6,0.2c0.1-0.1,0.2-0.3,0.4-0.4c0.2-0.1,0.4-0.1,0.7,0
	c0-0.5,0.1-0.9,0.3-1c0.2-0.1,0.4-0.2,0.5-0.3c-0.8-0.5-1.3-0.5-1.5-0.1c-0.2,0.4-0.5,0.7-0.7,0.9c0.4-1.2,1-1.9,1.7-1.9
	c0.7,0,1.3,0.2,1.9,0.8c0-0.1,0-0.2,0-0.5c0-0.3,0.1-0.5,0.2-0.8c0.1-0.2,0.4-0.4,0.7-0.5c0.4-0.1,0.9,0.1,1.6,0.4
	c-0.1,0-0.2,0-0.4-0.1c-0.2-0.1-0.3-0.1-0.5-0.1c-0.2,0-0.4,0.2-0.6,0.4c-0.2,0.2-0.4,0.7-0.5,1.4c0.1-0.3,0.4-0.7,0.9-1.1
	c0.5-0.4,0.9-0.5,1.3-0.1c0.1,0.2,0.2,0.4,0.3,0.7c0,0.3,0,0.5,0,0.6c-0.1-0.7-0.4-0.9-0.9-0.8c-0.5,0.1-0.9,0.6-1.1,1.4
	c0.3,0,0.7-0.1,1.1-0.4c0.4-0.3,1-0.1,1.7,0.4c-0.3,0-0.5,0-0.6,0c-0.1,0-0.2,0.1-0.2,0.1c0.4,0,0.7,0.2,0.9,0.7
	c0.2,0.5,0.3,0.9,0.3,1.2c-0.4-0.8-0.9-1.3-1.6-1.4c-0.7-0.1-1.1,0-1.3,0.4c0.4,0.1,0.6,0.4,0.6,0.7c0,0.3-0.2,0.7-0.5,1.1
	c-0.1-0.4-0.1-0.7-0.2-0.9c0-0.2-0.3-0.3-0.8-0.4c0.2,1,0.3,2.1,0.4,3.3c0.1,1.2,0,2.3-0.2,3.4c0,0.1-0.1,0.3-0.1,0.5
	c0,0,0.1,0.1,0.1,0.1c0.1,0,0.1,0,0.2,0c2.1,0.1,3.2,0.9,3.5,1.3h4.6c-0.3-0.7-0.4-1.1-0.6-2c-0.3-2.4-0.9-5.2,0.8-8.1
	c1.3-2.2,2-3.7,1.5-4.4c0-0.8-0.8-2-1.8-2.3c-1.5,0-1.9,0.1-3.4,0.1l-0.6-1.3l0.1-0.3l-0.4,0l-0.4-0.7l1.4-1.8l0.9-0.2l1.3-0.1
	l1-0.1l2-0.3l1.2-0.7l0.3-0.9l1.5-0.4l1.2-0.3l1.5,0.3l1.7,1.4c1.7,2.5,2.1,2.2,1.5,5.1c0.1,3.5-2.4,13.4,1.2,6.3l1-1.2l1.3-1.2
	l0.6-0.4l1-0.4l1.1-0.6l0.4-1l0.8-1.1l1-0.8l1.4-1l1.2-0.5l1.2-0.2l1.5,0.1l0.7,0.1c-4.1-5.8-10.8-9.6-18.4-9.6
	c-12.4,0-22.4,10.1-22.4,22.4C656.1,560,656.3,561.9,656.8,563.8z M661.6,555.5c0,0.3,0,0.5,0.1,0.5c0-0.2,0.1-0.5,0.2-0.8
	c0.1-0.3,0.2-0.5,0.4-0.5c0,0,0.1,0,0.1,0c0,0-0.1,0-0.1,0c-0.2,0-0.3,0.1-0.4,0.1c-0.1,0-0.2,0.1-0.3,0.2
	C661.6,555.1,661.5,555.2,661.6,555.5z M661.8,554.2c0.1-0.1,0.3-0.1,0.6,0c0-0.3-0.2-0.5-0.4-0.6c-0.3-0.1-0.4,0.2-0.4,0.7
	C661.6,554.3,661.7,554.3,661.8,554.2z M661.9,556.9c0.3,0.7,0.5,1.6,0.7,2.5c0.2,0.9,0.2,1.8,0.2,2.7h0.3c0.2-0.9,0.3-1.9,0.3-3.1
	c0-1.2-0.2-2.4-0.5-3.6c-0.4,0.1-0.8,0.3-1,0.5C661.7,556,661.7,556.4,661.9,556.9z M660.9,555.2c-0.1-0.2-0.1-0.4-0.2-0.4
	c-0.1,0-0.1,0-0.2,0.1c-0.1,0.1-0.2,0.1-0.2,0.2c0.1,0,0.2,0.1,0.3,0.2c0.2,0.1,0.3,0.2,0.4,0.3C661,555.6,661,555.4,660.9,555.2z
	 M659.1,555.1c-0.2,0-0.3,0-0.4,0.1c0,0.1-0.1,0.2-0.1,0.3c0,0.1,0,0.2,0,0.3c0.1-0.1,0.2-0.2,0.4-0.2c0.2,0,0.3,0,0.4,0
	c0,0,0-0.1,0.1-0.2c0-0.1,0-0.1,0.1-0.2C659.4,555.2,659.3,555.1,659.1,555.1z M657.1,564.8h15.3c-0.1-0.1-0.1-0.3-0.2-0.4H657
	C657,564.6,657.1,564.7,657.1,564.8z M657.5,566h15.6c-0.2-0.2-0.4-0.5-0.5-0.8h-15.3C657.3,565.4,657.4,565.7,657.5,566z
	 M658.3,567.8h18.2c-0.7-0.5-2.1-0.9-3-1.4c0,0-0.1-0.1-0.1-0.1h-15.7C657.9,566.8,658.1,567.3,658.3,567.8z M659.5,570h19.4
	c-0.4-0.6-1-1.1-1.9-1.8h-18.5C658.8,568.8,659.2,569.4,659.5,570z M662.6,573.8h17.3c0-1.2-0.3-2.4-0.8-3.5h-19.3
	C660.6,571.6,661.5,572.7,662.6,573.8z M669,578.3h11.8l-1.3-2c0.2-0.7,0.3-1.5,0.3-2.2h-16.9C664.7,575.9,666.8,577.3,669,578.3z
	 M687.2,578.7h-3.1c0,0.2,0,0.4,0,0.6l-2.4,0.5l-0.7-1.1h-11.3c2.7,1.1,5.6,1.8,8.7,1.8C681.6,580.4,684.6,579.8,687.2,578.7z
	 M684.1,570.3c-0.2,1.1-0.2,2.3-0.2,3.5h2.2l-0.6-3.5H684.1z M685.5,570l0-0.1L685,570H685.5z M694.1,574.1h-2.9l-0.2,0.7l-0.3,2
	C691.9,576,693,575.1,694.1,574.1z M697.3,570.3h-3.8c-0.1,0.1-0.1,0.1-0.2,0.1c-0.2,0-0.5-0.1-0.5-0.1l-0.7,0.4l-0.4,0.5l0,1
	l-0.3,1.3l-0.1,0.3h3.1C695.5,572.7,696.4,571.6,697.3,570.3z M699.7,565.4c-0.3-0.2-0.6-0.4-0.8-0.5c-0.3-0.3,0.5-0.7,0.5-0.7
	s-0.4-0.8-0.5-1c-0.1-0.3,0.3-1,0.3-1l-0.8-0.9c0,0,0,0-0.1,0c-0.1,0.7-0.3,1.9-0.3,1.9s0,1.2-0.1,1.4c-0.1,0.2-0.5,0.7-0.5,0.7
	h-0.7l0.2-0.9c0,0,0.3-1,0.3-1.2c0-0.2,0.1-2.1,0.1-2.1l0-0.2c-0.1-0.1-0.2-0.2-0.2-0.3l-0.2,1.3l-0.6,0.6l0.2-5.5l0-1.3l0.5-1.1
	l0.5-0.1l0.4-0.6c0,0,0.1-0.7,0.3-1c0.2-0.3,0.5-0.5,0.7-0.5c0.2,0,0.5-0.6,0.6-0.7c0.2-0.1,0.2-0.6,0.2-0.8c0,0,0-0.1,0-0.1
	c-0.1-0.3-0.2-0.5-0.3-0.8l-0.1,0.2l-0.4-0.6l-0.2,0.6l-0.4-0.2l-0.2,0.7l-0.5-0.5l-0.6-0.8l-0.6-0.8l-0.9-0.8l-0.7-0.7l-0.5,0
	l-0.7,0.6l-0.8,0.2l-0.6,0.5l-1.4,0.8l0,0.2l0.7,1.6l0.7,1l0.3,0.4l-0.3,0.3l-0.7-0.5l-0.3,0.1l0.6,0.4l0,0.6l-0.2,0.3h-0.5
	l-0.5-0.2l0.3,0.5l0.7,0c0,0,1.6,0,1.7-0.1c0.2,0,1.1,0,1.1,0l-0.7,0.5l-0.3,0.6l0.2,0.7l-0.3,0l-2.2-0.5l-0.6-0.7l-0.5-0.5
	l-0.2-0.5l-0.2-0.1l-1.5-1.1l-2.5,2.4c-0.3,1.2,0.7,2.2,1.1,2.6c-0.1,0-0.3,0-0.4,0c-0.3-0.1-0.6-0.3-0.9-0.4
	c-0.5,0-0.7,0.3-0.6,0.9c0.4,0.6,0.8,1.2,1.2,1.8c-0.1,0.1-0.3,0.2-0.4,0.3c-0.5-0.4-1-0.9-1.6-1.3c0.6,1.6,0.2,1.2-0.4,0.6
	c0.4,0.8,0.8,1.7,1.3,2.5c-0.1,0.1-0.3,0.3-0.4,0.4c-0.9,0.3-1.6-0.1-1.8-1.8c0,0.1,0,0.2,0,0.2c0,0,0,0,0,0
	c-0.2,0.2-0.1-0.2-0.3-0.1c-1.2,0.7-1.2,0.6-1,0.3c0.2-0.1,0.4-0.3,0.5-0.5c0.1-0.1-0.3,0.2-0.5,0.5c-1.2,0.8-3.4,0.9-3.1,0.7
	c1.1-0.6,2.6-1.1,2.5-1.4c0-0.1,0,0-0.3-0.6c-0.2,0.5-1.3,0.4-2.8,0.1c1-0.3,2.9,0,2.1-1l-0.1-0.2c0,0.3-1.1,0.2-2.3,0.1
	c1-0.2,2.5-0.3,1.8-0.9l-1.7,0l1.6-0.4l0.5-0.5l-1.1-0.1l0.8-0.5l0.2-0.7l-0.5-0.8l0.9-0.2l0.9-1.1l0.1-1.7
	c-0.7,0.5-2.4,0.8-3.3,0.5c1.2-0.3,2.8-1,3.4-1.1l0-0.4l-3.1,1.1c2.3-2,0.5-0.3-0.2-1.2c2-2,3.6-1.3,3.2-2.1
	c0.5-1.6-2.1-1.3-1.8-1.4l1.9-1c-2.7-1.5,0.1-2.1-0.5-2.6l-1.2-1.2l-1.4-0.4l-1.1,0.1l-1.8,1.1l0.2,0.8l0.9-0.3l0.3-0.7
	c0.9,0.5,1.3,1.2,1,2c-0.5,0.8-1.5,0.6-2.5,0.7l-0.1-0.9c0.4-0.4,1.2,0.7,1.1,0.1c-0.4-0.5-0.8-0.8-1.6-0.5l-0.6-0.4l-2.8,0.1
	l-2,0.3l-0.7,0.9l0.5,0.7l1.2,0l-0.9,0.4l0.2,1l2.6-0.2c1.6,0.4,2.4,0.8,2.4,0.9l3.3-0.5l-2.4,1.2c0.9,0.1,0.9,0,1.8-0.3l-1.8,1.1
	c0.6,0.2,1.4-0.3,2-0.4c0,0.2-1.9,1.2-2,1.4c-0.3,1.3-1.6,3.1-2.6,6.7c-0.5,2-0.3,3.4,0.1,5c0,0.2,0.1,0.4,0.1,0.7
	c0.1,0.3,0.1,0.7,0.2,0.9c0.5,1.4,3,3,4.3,3.3l0.8,0.1l1,0.5l0.3-0.8h0.9l0.3-0.5l0.6,0.9l0.8,0.5l0.3-0.9l1.7,0.4l0.4-0.2l0.7-2.1
	l-1.1-1.6l0.7,0l0.7,1.1l0.3-0.5l0.2-1.2c0.2,0,0.3,0.1,0.5,0.1c0.2,0.7,0.4,1.5,0.5,2.2l-0.1,1.7l0.5,0.3l0.4,0.7l0.5-0.5l-0.1,1.1
	l0.4-0.2l-0.1,0.6l0.7,0.3l0.4,1L689,571l0.6,0.4l-0.4,3.5l-1.2,3l-1.2-0.4l-0.6-3.5h-2.3c0,1.5,0.1,2.9,0.2,4.2h3.9
	c0.8-0.4,1.5-0.8,2.2-1.2l0-0.6v-1.2l0.1-1.1l0.1-1.1l0.2-1.3l0-1.2l-0.1-0.9l0.4-0.7l0.4-0.6l-0.1-0.7l-0.2-0.8l0.2-0.8l0.7,0.1
	l0.8,0.4l0.4,0.3l1-0.2l0.6-0.2l0.4-0.3c0,0,0.8-0.3,1.1-0.3c0.3-0.1,0.5,0.1,0.5,0.1l0.8,0.8l-0.2,0.4l-0.7,0.3v0.5l-0.7,0.5
	c0,0-0.6,0.4-0.9,0.5c-0.4,0.1-1,0.5-1,0.5l-0.3,0.3c0,0,0,0,0,0.1h3.8C698.4,568.5,699.1,567,699.7,565.4z M684.4,586.1l-0.7-3.6
	l-0.9,0.2l0.9,4.3l3.2-0.6l-0.1-0.7L684.4,586.1z M682.7,560.1C682.6,560.4,682.8,560.2,682.7,560.1L682.7,560.1z M712,558
	c0,18.5-15.1,33.5-33.5,33.5c-18.5,0-33.5-15.1-33.5-33.5c0-18.5,15.1-33.5,33.5-33.5C697,524.5,712,539.5,712,558z M709.8,558
	c0-17.2-14-31.2-31.2-31.2c-17.2,0-31.2,14-31.2,31.2c0,17.2,14,31.2,31.2,31.2C695.7,589.2,709.8,575.2,709.8,558z M703.4,553.3
	c0.3,0.2,0.7,0.4,1.2,0.4l0.1-0.9c-0.3,0-0.6-0.1-0.8-0.2c-0.2-0.1-0.3-0.3-0.4-0.5c-0.1-0.3,0-0.6,0.2-0.8c0.2-0.3,0.5-0.4,1.1-0.6
	c0.5-0.1,0.9-0.1,1.2,0c0.3,0.1,0.5,0.4,0.5,0.7c0.1,0.2,0,0.4,0,0.6c-0.1,0.2-0.2,0.3-0.4,0.4l0.4,0.8c0.3-0.2,0.5-0.4,0.7-0.6
	c0.2-0.4,0.3-0.9,0.1-1.4c-0.1-0.6-0.5-1-1-1.3c-0.5-0.3-1.1-0.3-1.8-0.1c-0.7,0.2-1.2,0.5-1.5,0.9c-0.3,0.5-0.4,1-0.2,1.5
	C702.9,552.7,703.1,553.1,703.4,553.3z M703.2,562.2l1.9,0.3l-0.3,1.8l0.7,0.1l0.3-1.8l1,0.2l-0.3,2.1l0.7,0.1l0.5-3l-4.4-0.7
	L703.2,562.2z M653.4,560.1l-4.4,0.1l0-1.9c0-0.5,0-0.8,0.1-1c0.1-0.2,0.2-0.4,0.4-0.5c0.2-0.1,0.4-0.2,0.7-0.2
	c0.3,0,0.6,0.1,0.8,0.3c0.2,0.2,0.4,0.5,0.4,0.9c0.1-0.2,0.2-0.4,0.4-0.5c0.1-0.1,0.4-0.3,0.7-0.5l0.9-0.6l0,1.1l-1,0.7
	c-0.3,0.2-0.6,0.4-0.6,0.5c-0.1,0.1-0.1,0.2-0.2,0.3c0,0.1,0,0.2,0,0.5l0,0.2l1.8,0L653.4,560.1z M650.9,559.2l0-0.7
	c0-0.4,0-0.7-0.1-0.8c0-0.1-0.1-0.2-0.2-0.2c-0.1-0.1-0.2-0.1-0.3-0.1c-0.1,0-0.3,0-0.4,0.1c-0.1,0.1-0.1,0.2-0.2,0.3
	c0,0.1,0,0.3,0,0.7l0,0.7L650.9,559.2z M651.2,549.4c0.3,0.3,0.6,0.6,1,0.7c0.4,0.2,0.8,0.2,1.2,0.2c0.4,0,0.8-0.1,1.1-0.4
	c0.3-0.2,0.6-0.6,0.7-1c0.1-0.3,0.2-0.7,0.2-1.1c0-0.4,0-0.7-0.1-0.9l-1.6-0.7l-0.8,1.8l0.7,0.3l0.4-0.9l0.5,0.2
	c0,0.2,0.1,0.3,0.1,0.5c0,0.2,0,0.4-0.1,0.6c-0.1,0.3-0.4,0.6-0.7,0.7c-0.3,0.1-0.7,0.1-1.2-0.1c-0.4-0.2-0.7-0.4-0.9-0.7
	c-0.1-0.3-0.1-0.6,0-1c0.1-0.2,0.2-0.4,0.4-0.5c0.2-0.1,0.4-0.1,0.6-0.1l0.2-0.9c-0.4-0.1-0.8,0-1.1,0.2c-0.3,0.2-0.6,0.5-0.8,1
	c-0.2,0.4-0.2,0.7-0.2,1.1C650.8,548.7,650.9,549.1,651.2,549.4z M658.3,543l-2.2-4.2l0.6-0.7l4.5,1.6l-0.6,0.7l-1-0.4l-1.2,1.3
	l0.5,0.9L658.3,543z M658,540.7l0.8-0.9l-1.6-0.6L658,540.7z M682.5,586.4l0.6,0.8l-1.1,0.1l-0.7-0.9c-0.3-0.3-0.4-0.5-0.5-0.6
	c-0.1-0.1-0.2-0.1-0.3-0.2c-0.1,0-0.3,0-0.5,0l-0.2,0l0.1,1.8l-0.9,0l-0.2-4.4l2-0.1c0.5,0,0.9,0,1.1,0.1c0.2,0.1,0.4,0.2,0.6,0.4
	c0.1,0.2,0.2,0.4,0.2,0.7c0,0.3-0.1,0.6-0.3,0.8c-0.2,0.2-0.5,0.4-0.9,0.5c0.2,0.1,0.4,0.2,0.5,0.3
	C682.1,585.8,682.3,586,682.5,586.4z M681.3,584.7c0.1,0,0.2-0.1,0.3-0.2c0.1-0.1,0.1-0.2,0.1-0.3c0-0.1-0.1-0.3-0.1-0.4
	c-0.1-0.1-0.2-0.1-0.4-0.2c-0.1,0-0.3,0-0.7,0l-0.7,0l0.1,1.1l0.7,0C680.9,584.8,681.2,584.7,681.3,584.7z M656.1,546.4l-3.6-2.6
	l1.1-1.5c0.3-0.4,0.5-0.6,0.7-0.8c0.2-0.1,0.4-0.2,0.6-0.2c0.2,0,0.5,0.1,0.7,0.3c0.3,0.2,0.4,0.4,0.5,0.7c0.1,0.3,0,0.6-0.2,0.9
	c0.2-0.1,0.4-0.1,0.6-0.2c0.2,0,0.5,0,0.9,0l1,0.1l-0.6,0.9l-1.2,0c-0.4,0-0.7,0-0.8,0c-0.1,0-0.2,0.1-0.3,0.1
	c-0.1,0.1-0.2,0.2-0.3,0.3l-0.1,0.1l1.5,1.1L656.1,546.4z M654.9,543.6c0.3-0.3,0.4-0.6,0.4-0.7c0-0.1,0-0.2,0-0.3
	c0-0.1-0.1-0.2-0.2-0.3c-0.1-0.1-0.2-0.1-0.4-0.1c-0.1,0-0.2,0.1-0.3,0.2c0,0.1-0.2,0.2-0.4,0.5l-0.4,0.6l0.9,0.7L654.9,543.6z
	 M649.3,553.9c-0.1-0.3-0.1-0.6,0-1c0.1-0.6,0.4-1.1,0.9-1.4c0.5-0.3,1.1-0.4,1.8-0.3c0.7,0.1,1.2,0.4,1.5,0.9
	c0.3,0.5,0.4,1,0.3,1.6c-0.1,0.6-0.4,1.1-0.9,1.4c-0.5,0.3-1,0.4-1.7,0.3c-0.4-0.1-0.8-0.2-1.1-0.4c-0.2-0.1-0.4-0.3-0.5-0.5
	C649.5,554.3,649.4,554.1,649.3,553.9z M650.3,554c0.2,0.3,0.6,0.4,1.1,0.5c0.5,0.1,0.9,0,1.2-0.1c0.3-0.2,0.5-0.4,0.5-0.8
	c0.1-0.3,0-0.7-0.2-0.9c-0.2-0.3-0.6-0.4-1.1-0.5c-0.5-0.1-0.9,0-1.2,0.1c-0.3,0.2-0.5,0.4-0.5,0.8C650,553.4,650.1,553.7,650.3,554
	z M674.6,587.2l3.5,0.2l0.1-0.7l-2.6-0.2l0.1-1.2l2.3,0.2l0.1-0.7l-2.3-0.2l0.1-1l2.5,0.2l0.1-0.7l-3.4-0.2L674.6,587.2z
	 M653.9,563.3l0.2,0.9l-4.3,0.8l-0.2-1.4c-0.1-0.5-0.1-0.9-0.1-1.1c0-0.3,0.1-0.5,0.3-0.7c0.2-0.2,0.5-0.3,0.8-0.4
	c0.3,0,0.5,0,0.7,0c0.2,0.1,0.4,0.2,0.5,0.3c0.1,0.1,0.2,0.3,0.3,0.4c0.1,0.2,0.2,0.5,0.2,0.9l0.1,0.6L653.9,563.3z M651.5,563.7
	l-0.1-0.5c-0.1-0.3-0.1-0.6-0.2-0.7c-0.1-0.1-0.2-0.2-0.3-0.2c-0.1,0-0.2-0.1-0.4,0c-0.2,0-0.3,0.1-0.4,0.2
	c-0.1,0.1-0.1,0.2-0.1,0.4c0,0.1,0,0.3,0.1,0.6l0.1,0.4L651.5,563.7z M674.6,584c-0.1,0.3-0.2,0.5-0.3,0.6c-0.1,0.2-0.3,0.3-0.5,0.3
	c-0.2,0.1-0.4,0.1-0.5,0.1c-0.2,0-0.5-0.1-1-0.1l-0.6-0.1l-0.4,1.6l-0.9-0.2l1-4.3l1.5,0.3c0.6,0.1,0.9,0.2,1.1,0.3
	c0.2,0.1,0.4,0.3,0.6,0.6C674.7,583.4,674.7,583.7,674.6,584z M673.6,583.4c-0.1-0.1-0.2-0.2-0.3-0.3c-0.1,0-0.3-0.1-0.7-0.2
	l-0.4-0.1l-0.3,1.2l0.5,0.1c0.4,0.1,0.6,0.1,0.7,0.1c0.1,0,0.2-0.1,0.3-0.1c0.1-0.1,0.2-0.2,0.2-0.3
	C673.7,583.7,673.7,583.5,673.6,583.4z"/>
</svg>
