<?xml version="1.0" encoding="utf-8"?>
<!-- Generator: Adobe Illustrator 19.2.1, SVG Export Plug-In . SVG Version: 6.00 Build 0)  -->
<svg version="1.1" id="Layer_1" xmlns="http://www.w3.org/2000/svg" xmlns:xlink="http://www.w3.org/1999/xlink" x="0px" y="0px"
	 viewBox="0 0 960 655" style="enable-background:new 0 0 960 655;" xml:space="preserve">
<style type="text/css">
	.st0{enable-background:new    ;}
	.st1{fill:#EF3E32;}
	.st2{fill:none;stroke:#EF3E32;stroke-miterlimit:10;}
	.st3{fill:#FFFFFF;stroke:#EF3E32;stroke-width:2;stroke-miterlimit:10;}
</style>
<g>
	<g class="st0">
		<path class="st1" d="M144.1,134l-4.2-16.2h1.2l2.4,9.1c0.6,2.1,1.1,4.1,1.4,5.6l0,0c0.3-1.5,0.9-3.5,1.5-5.5l2.7-9.2h1.1l2.4,9
			c0.6,1.9,1.1,3.9,1.4,5.6l0,0c0.3-1.8,0.9-3.4,1.5-5.5l2.7-9.2h1.2l-4.8,16.2h-1l-2.4-9.3c-0.6-2.4-1-3.9-1.2-5.4l0,0
			c-0.3,1.5-0.8,3.2-1.5,5.4l-2.7,9.3h-1.5v0.1H144.1z"/>
		<path class="st1" d="M160.6,128c0,3.6,1.9,5.1,4.3,5.1c1.7,0,2.6-0.3,3.2-0.6l0.3,0.9c-0.5,0.3-1.7,0.8-3.6,0.8
			c-3.3,0-5.4-2.4-5.4-5.8c0-3.9,2.2-6.3,5.2-6.3c3.8,0,4.5,3.6,4.5,5.2c0,0.3,0,0.5,0,0.7L160.6,128L160.6,128z M168,127.1
			c0-1.6-0.6-4-3.5-4c-2.5,0-3.6,2.2-3.9,4H168z"/>
		<path class="st1" d="M172.2,116.9h1.2v7.7l0,0c0.8-1.5,2.2-2.4,4.2-2.4c2.8,0,4.9,2.4,4.9,5.9c0,4-2.5,6.2-5.1,6.2
			c-1.8,0-3.2-0.8-4.2-2.4l0,0l-0.2,2.2h-1c0-0.8,0.2-1.8,0.2-2.7V116.9L172.2,116.9z M173.2,129.5c0,0.3,0,0.6,0.2,0.9
			c0.4,1.8,1.9,2.8,3.8,2.8c2.7,0,4.2-2.1,4.2-5.1c0-2.7-1.5-5-4-5c-1.7,0-3.3,1.2-3.9,3c0,0.3-0.2,0.6-0.2,1v2.4H173.2z"/>
		<path class="st1" d="M190.2,132.2c0.9,0.6,2.2,1.1,3.6,1.1c2.4,0,3.9-1.3,3.9-3.3c0-1.8-0.9-2.8-3.3-3.7c-2.6-0.9-4.2-2.2-4.2-4.5
			c0-2.4,2-4,4.7-4c1.5,0,2.7,0.5,3.2,0.8l-0.5,1c-0.4-0.3-1.5-0.8-2.8-0.8c-2.6,0-3.5,1.6-3.5,3c0,1.8,1,2.7,3.3,3.6
			c2.7,1,4.1,2.2,4.1,4.6c0,2.4-1.7,4.5-5.1,4.5c-1.3,0-3-0.4-3.9-1L190.2,132.2z"/>
		<path class="st1" d="M201.3,122.5l3,7.5c0.3,0.8,0.6,1.8,0.9,2.4l0,0c0.3-0.8,0.6-1.7,0.9-2.5l2.9-7.5h1.2l-3.4,8.5
			c-1.4,3.6-2.4,5.7-3.9,7.1c-0.9,0.8-1.8,1-1.9,1.2l-0.3-0.9c0.6-0.2,1.4-0.6,2-1.2c0.6-0.6,1.3-1.5,2-2.8c0.1-0.3,0.1-0.5,0.1-0.5
			c0-0.2,0-0.3-0.1-0.4l-4.2-10.7h1v-0.2H201.3z"/>
		<path class="st1" d="M211.9,132.5c0.6,0.4,1.5,0.8,2.5,0.8c1.8,0,2.7-1.1,2.7-2.2c0-1.2-0.8-2-2.4-2.6c-1.9-0.7-3-1.8-3-3.1
			c0-1.6,1.3-3.1,3.6-3.1c1,0,2,0.3,2.5,0.8l-0.4,0.9c-0.4-0.3-1.2-0.8-2.2-0.8c-1.5,0-2.2,0.9-2.2,2c0,1.2,0.8,1.7,2.4,2.4
			c1.8,0.8,3,1.7,3,3.4c0,2-1.5,3.3-3.9,3.3c-1.1,0-2.1-0.3-3-0.8L211.9,132.5z"/>
		<path class="st1" d="M222.9,119.9v2.5h3.3v0.9h-3.3v7.5c0,1.5,0.4,2.4,1.6,2.4c0.6,0,1.1,0,1.4-0.2l0.1,0.9
			c-0.4,0.2-0.9,0.3-1.6,0.3c-0.9,0-1.5-0.3-2-0.8c-0.6-0.6-0.8-1.7-0.8-2.7v-7.2h-2v-0.9h2v-2.1L222.9,119.9z"/>
		<path class="st1" d="M228.7,128c0,3.6,2,5.1,4.3,5.1c1.7,0,2.6-0.3,3.2-0.6l0.3,0.9c-0.4,0.3-1.6,0.8-3.6,0.8
			c-3.3,0-5.4-2.4-5.4-5.8c0-3.9,2.2-6.3,5.2-6.3c3.8,0,4.5,3.6,4.5,5.2c0,0.3,0,0.5,0,0.7L228.7,128L228.7,128z M236.1,127.1
			c0-1.6-0.6-4-3.5-4c-2.6,0-3.6,2.2-3.9,4H236.1z"/>
		<path class="st1" d="M240.3,125.1c0-1,0-1.8-0.1-2.7h1v2l0,0c0.8-1.3,1.8-2.2,3.8-2.2c1.7,0,2.8,1,3.3,2.5l0,0
			c0.3-0.6,0.8-1.2,1.2-1.5c0.8-0.6,1.5-0.9,2.7-0.9s3.8,0.6,3.8,5v6.8h-1.2v-6.8c0-2.5-1.1-4.2-3-4.2c-1.5,0-2.5,1-3,2.2
			c-0.2,0.3-0.2,0.8-0.2,1.2v7.3h-1.2v-7.2c0-2.1-1.1-3.6-2.9-3.6c-1.5,0-2.7,1.2-3.1,2.5c-0.2,0.3-0.2,0.8-0.2,1.2v7.1H240v-8.7
			C240,125.1,240.3,125.1,240.3,125.1z"/>
		<path class="st1" d="M259.3,132.5c0.6,0.4,1.5,0.8,2.5,0.8c1.8,0,2.7-1.1,2.7-2.2c0-1.2-0.8-2-2.4-2.6c-1.9-0.7-3-1.8-3-3.1
			c0-1.6,1.3-3.1,3.6-3.1c1.1,0,2,0.3,2.6,0.8l-0.5,0.9c-0.4-0.3-1.2-0.8-2.2-0.8c-1.5,0-2.2,0.9-2.2,2c0,1.2,0.8,1.7,2.4,2.4
			c1.8,0.8,3,1.7,3,3.4c0,2-1.5,3.3-3.9,3.3c-1,0-2.1-0.3-3-0.8L259.3,132.5z"/>
	</g>
</g>
<line class="st2" x1="315.6" y1="164.9" x2="240.5" y2="164.9"/>
<line class="st2" x1="240.5" y1="164.9" x2="224.2" y2="141.4"/>
<circle class="st3" cx="315.6" cy="164.9" r="6.8"/>
</svg>
