<svg version="1.1" id="Layer_1" xmlns="http://www.w3.org/2000/svg" xmlns:xlink="http://www.w3.org/1999/xlink" x="0px" y="0px"
	 viewBox="0 0 960 655" style="enable-background:new 0 0 960 655;" xml:space="preserve">
<style type="text/css">
	.st0{fill:url(#SVGID_1_);}
	.st1{fill:#6282B7;}
	.st2{fill:#FFFFFF;}
	.st3{fill:#050507;}
</style>
<radialGradient id="SVGID_1_" cx="128.9959" cy="548.9277" r="61.9373" gradientTransform="matrix(1 0 0 1 26.5198 -9.3071)" gradientUnits="userSpaceOnUse">
	<stop  offset="0" style="stop-color:#FFFFFF"/>
	<stop  offset="0.5" style="stop-color:#4D6C98"/>
	<stop  offset="1" style="stop-color:#231F20"/>
</radialGradient>
<ellipse class="st0" cx="174.4" cy="555.7" rx="47.2" ry="24.8"/>
<ellipse class="st1" cx="174.4" cy="555.7" rx="45.3" ry="23"/>
<g>
	<path class="st2" d="M183.5,563.1l2.2-11.6c0.5-2.6,0.1-4.6-1.3-5.8c-1.3-1.2-3.5-1.8-6.7-1.8h-3.9l1.1-5.7c0-0.2,0-0.4-0.2-0.6
		c-0.1-0.2-0.3-0.3-0.6-0.3h-5.4c-0.4,0-0.7,0.2-0.7,0.6l-2.4,12.3c-0.2-1.4-0.8-2.6-1.6-3.6c-1.6-1.8-4.1-2.7-7.4-2.7h-10.4
		c-0.4,0-0.7,0.2-0.7,0.6l-4.8,24.9c0,0.2,0,0.4,0.2,0.6c0.1,0.2,0.3,0.3,0.6,0.3h5.4c0.4,0,0.7-0.3,0.7-0.6l1.2-6h4
		c2.1,0,3.9-0.2,5.3-0.7c1.4-0.5,2.7-1.2,3.9-2.3c0.9-0.9,1.7-1.8,2.3-2.8l-1,5c0,0.2,0,0.4,0.2,0.6c0.1,0.2,0.3,0.3,0.6,0.3h5.4
		c0.4,0,0.7-0.3,0.7-0.6l2.7-13.6h3.7c1.6,0,2,0.3,2.2,0.4c0.1,0.1,0.4,0.6,0.1,1.9l-2.1,11c0,0.2,0,0.4,0.2,0.6
		c0.1,0.2,0.3,0.3,0.6,0.3h5.5C183.2,563.7,183.5,563.5,183.5,563.1z M158.6,553.6c-0.3,1.7-1,3-1.9,3.7c-0.9,0.7-2.4,1.1-4.4,1.1
		h-2.4l1.7-8.9h3.1c2.3,0,3.2,0.5,3.6,0.9C158.8,550.9,158.9,552,158.6,553.6z"/>
	<path class="st2" d="M206.5,546.7c-1.6-1.8-4.1-2.7-7.4-2.7h-10.4c-0.4,0-0.7,0.2-0.7,0.6l-4.8,24.9c0,0.2,0,0.4,0.2,0.6
		c0.1,0.2,0.3,0.3,0.6,0.3h5.4c0.4,0,0.7-0.3,0.7-0.6l1.2-6h4c2.1,0,3.9-0.2,5.3-0.7c1.4-0.5,2.7-1.2,3.9-2.3c1-0.9,1.8-1.9,2.3-2.9
		c0.6-1.1,1-2.3,1.3-3.5C208.6,551.1,208.1,548.5,206.5,546.7z M200.9,553.6c-0.3,1.7-1,3-1.9,3.7c-0.9,0.7-2.4,1.1-4.4,1.1h-2.4
		l1.7-8.9h3.1c2.3,0,3.2,0.5,3.6,0.9C201.1,550.9,201.2,552,200.9,553.6z"/>
</g>
<g>
	<path class="st3" d="M154.7,548.7c2.1,0,3.4,0.4,4.1,1.1c0.7,0.8,0.8,2.1,0.5,3.9c-0.4,1.9-1.1,3.3-2.2,4.1
		c-1.1,0.8-2.7,1.2-4.9,1.2H149l2-10.4H154.7z M141.6,569.6h5.4l1.3-6.6h4.6c2,0,3.7-0.2,5.1-0.6c1.3-0.4,2.5-1.2,3.6-2.2
		c0.9-0.8,1.6-1.8,2.2-2.8c0.6-1,1-2.1,1.2-3.3c0.6-2.9,0.1-5.2-1.3-6.9c-1.4-1.6-3.7-2.5-6.9-2.5h-10.4L141.6,569.6z"/>
	<path class="st3" d="M168.9,538.1h5.4l-1.3,6.6h4.8c3,0,5.1,0.5,6.2,1.6c1.1,1.1,1.5,2.8,1,5.1l-2.2,11.6h-5.5l2.1-11
		c0.2-1.3,0.2-2.1-0.3-2.6c-0.4-0.5-1.3-0.7-2.7-0.7h-4.3l-2.8,14.2h-5.4L168.9,538.1z"/>
	<path class="st3" d="M197,548.7c2.1,0,3.4,0.4,4.1,1.1c0.7,0.8,0.8,2.1,0.5,3.9c-0.4,1.9-1.1,3.3-2.2,4.1c-1.1,0.8-2.7,1.2-4.9,1.2
		h-3.3l2-10.4H197z M183.8,569.6h5.4l1.3-6.6h4.6c2,0,3.7-0.2,5.1-0.6c1.3-0.4,2.5-1.2,3.6-2.2c0.9-0.8,1.6-1.8,2.2-2.8
		c0.6-1,1-2.1,1.2-3.3c0.6-2.9,0.1-5.2-1.3-6.9c-1.4-1.6-3.7-2.5-6.9-2.5h-10.4L183.8,569.6z"/>
</g>
</svg>
