<?xml version="1.0" encoding="utf-8"?>
<!-- Generator: Adobe Illustrator 19.2.1, SVG Export Plug-In . SVG Version: 6.00 Build 0)  -->
<svg version="1.1" id="Layer_1" xmlns="http://www.w3.org/2000/svg" xmlns:xlink="http://www.w3.org/1999/xlink" x="0px" y="0px"
	 viewBox="0 0 960 655" style="enable-background:new 0 0 960 655;" xml:space="preserve">
<style type="text/css">
	.st0{enable-background:new    ;}
	.st1{fill:#EF3E32;}
	.st2{fill:none;stroke:#EF3E32;stroke-miterlimit:10;}
	.st3{fill:#FFFFFF;stroke:#EF3E32;stroke-width:2;stroke-miterlimit:10;}
</style>
<g>
	<g class="st0">
		<path class="st1" d="M217,163.5l-2,5.5h-1.2l5.8-16.2h1l5.8,16.2h-1.2l-2.1-5.7H217V163.5z M223,162.4l-2-5.4
			c-0.4-1.2-0.6-1.9-0.9-2.8l0,0c-0.3,0.9-0.4,1.8-0.9,2.8l-1.9,5.4H223z"/>
		<path class="st1" d="M229.1,161.2c0-1.5,0-2.6-0.2-3.6h1.1v2.2l0,0c0.9-1.5,2.2-2.4,4.2-2.4c3,0,5,2.4,5,5.8c0,4-2.4,6.2-5.2,6.2
			c-1.7,0-3.2-0.8-3.9-2.1l0,0v6.6h-1.2v-12.8H229.1z M230.2,164.5c0,0.3,0,0.6,0.2,0.9c0.5,1.8,2,3,3.8,3c2.7,0,4.2-2.1,4.2-5.2
			c0-2.5-1.5-4.9-4.1-4.9c-1.7,0-3.3,1.2-3.8,3c0,0.3-0.2,0.6-0.2,1v2.2H230.2z"/>
		<path class="st1" d="M242.3,161.2c0-1.5,0-2.6-0.2-3.6h1v2.2l0,0c0.9-1.5,2.2-2.4,4.2-2.4c3,0,4.9,2.4,4.9,5.8
			c0,4-2.4,6.2-5.2,6.2c-1.7,0-3.2-0.8-3.9-2.1l0,0v6.6H242v-12.8H242.3z M243.5,164.5c0,0.3,0,0.6,0.2,0.9c0.5,1.8,2,3,3.8,3
			c2.7,0,4.2-2.1,4.2-5.2c0-2.5-1.5-4.9-4-4.9c-1.7,0-3.3,1.2-3.8,3c0,0.3-0.2,0.6-0.2,1v2.2H243.5z"/>
		<path class="st1" d="M255.5,151.9h1.2V169h-1.2V151.9z"/>
		<path class="st1" d="M260.8,163.2c0,3.6,1.9,5.1,4.4,5.1c1.6,0,2.6-0.3,3.1-0.6l0.3,0.9c-0.4,0.3-1.6,0.8-3.6,0.8
			c-3.3,0-5.4-2.4-5.4-5.8c0-3.9,2.2-6.3,5.2-6.3c3.8,0,4.5,3.6,4.5,5.2c0,0.3,0,0.4,0,0.8L260.8,163.2L260.8,163.2z M268.1,162.3
			c0-1.7-0.6-4-3.4-4c-2.6,0-3.6,2.2-3.9,4H268.1z"/>
		<path class="st1" d="M279.5,163.5l-1.9,5.7h-1.2l5.9-16.2h1.1l5.8,16.2h-1.2l-2.1-5.7H279.5z M285.5,162.4l-1.9-5.4
			c-0.4-1.2-0.6-1.9-0.9-2.8l0,0c-0.3,0.9-0.4,1.8-0.9,2.8l-1.9,5.4H285.5z"/>
		<path class="st1" d="M291.5,161.2c0-1.5,0-2.6-0.1-3.6h1.1v2.2l0,0c0.9-1.5,2.2-2.4,4.2-2.4c3,0,4.9,2.4,4.9,5.8
			c0,4-2.4,6.2-5.2,6.2c-1.7,0-3.2-0.8-3.9-2.1l0,0v6.6h-0.9V161.2z M292.7,164.5c0,0.3,0,0.6,0.2,0.9c0.4,1.8,1.9,3,3.8,3
			c2.7,0,4.2-2.1,4.2-5.2c0-2.5-1.5-4.9-4.1-4.9c-1.7,0-3.3,1.2-3.8,3c0,0.3-0.2,0.6-0.2,1v2.2H292.7z"/>
		<path class="st1" d="M304.9,161.2c0-1.5,0-2.6-0.2-3.6h1.1v2.2l0,0c0.9-1.5,2.2-2.4,4.2-2.4c3,0,4.9,2.4,4.9,5.8
			c0,4-2.4,6.2-5.2,6.2c-1.6,0-3.1-0.8-3.9-2.1l0,0v6.6h-1.2v-12.8H304.9z M305.9,164.5c0,0.3,0,0.6,0.1,0.9c0.4,1.8,1.9,3,3.8,3
			c2.7,0,4.2-2.1,4.2-5.2c0-2.5-1.5-4.9-4.1-4.9c-1.6,0-3.3,1.2-3.8,3c0,0.3-0.1,0.6-0.1,1v2.2H305.9z"/>
		<path class="st1" d="M317.6,167.5c0.6,0.5,1.5,0.8,2.6,0.8c1.8,0,2.7-1,2.7-2.2c0-1.2-0.8-1.9-2.4-2.5c-1.9-0.8-3-1.8-3-3.2
			c0-1.7,1.4-3.2,3.6-3.2c1.1,0,1.9,0.3,2.6,0.8l-0.4,0.9c-0.4-0.3-1.2-0.8-2.2-0.8c-1.5,0-2.2,0.9-2.2,1.9c0,1.2,0.8,1.7,2.4,2.4
			c1.8,0.8,3,1.7,3,3.5c0,1.9-1.5,3.3-3.9,3.3c-1.1,0-2.1-0.3-3-0.8L317.6,167.5z"/>
	</g>
</g>
<line class="st2" x1="365.7" y1="203" x2="290.6" y2="203"/>
<line class="st2" x1="290.6" y1="203" x2="274.3" y2="179.5"/>
<circle class="st3" cx="365.7" cy="203" r="6.8"/>
</svg>
