<svg version="1.1" id="Layer_1" xmlns="http://www.w3.org/2000/svg" xmlns:xlink="http://www.w3.org/1999/xlink" x="0px" y="0px"
	 viewBox="0 0 960 655" style="enable-background:new 0 0 960 655;" xml:space="preserve">
<style type="text/css">
	.st0{fill:#D1D3D4;}
	.st1{fill:#58595B;}
	.st2{fill:#414042;}
	.st3{fill:#808285;}
	.st4{fill:#6D6E71;}
	.st5{fill:#ED6E34;}
	.st6{fill:#E6E7E8;}
	.st7{fill:none;stroke:#58595B;stroke-width:2;stroke-linecap:round;stroke-miterlimit:10;stroke-dasharray:2,6;}
	.st8{fill:#A72D3A;}
	.st9{fill:url(#path3947_3_);}
	.st10{opacity:0.6682;fill:url(#path3934_3_);enable-background:new    ;}
	.st11{fill:#FFFFFF;fill-opacity:0.4396;}
	.st12{fill:#010101;fill-opacity:0.3623;}
	.st13{opacity:0.5;fill:#84232E;enable-background:new    ;}
	.st14{fill:#FFFFFF;}
	.st15{fill:none;stroke:#5D0A14;stroke-width:3;}
	.st16{fill:url(#SVGID_1_);}
	.st17{fill:#6282B7;}
	.st18{fill:#050507;}
	.st19{fill:url(#path1948_3_);}
	.st20{fill:url(#path1950_3_);}
	.st21{opacity:0.4438;fill:url(#path1894_3_);enable-background:new    ;}
	.st22{fill:#FFD074;}
	.st23{fill:#FAAC42;}
	.st24{fill:#F29525;}
	.st25{fill:#E5E5E5;}
	.st26{fill-rule:evenodd;clip-rule:evenodd;fill:#D3D3D3;}
	.st27{fill-rule:evenodd;clip-rule:evenodd;fill:#FFFFFF;}
	.st28{fill:url(#SVGID_2_);}
	.st29{fill:url(#SVGID_3_);}
	.st30{fill:#EF3E32;}
	.st31{fill:none;stroke:#EF3E32;stroke-miterlimit:10;}
	.st32{fill:#FFFFFF;stroke:#EF3E32;stroke-width:2;stroke-miterlimit:10;}
	.st33{fill:url(#path3947_4_);}
	.st34{opacity:0.6682;fill:url(#path3934_4_);enable-background:new    ;}
	.st35{fill:url(#SVGID_4_);}
	.st36{fill:url(#path1948_4_);}
	.st37{fill:url(#path1950_4_);}
	.st38{opacity:0.4438;fill:url(#path1894_4_);enable-background:new    ;}
	.st39{fill:#BC6228;}
	.st40{fill:#D77B28;}
	.st41{fill:#E2E2E2;}
	.st42{fill:#F37665;}
	.st43{fill:#FBC153;}
	.st44{fill:#64BF72;}
	.st45{fill:#E8E8E8;}
	.st46{fill:#C6C6C5;}
	.st47{fill:url(#SVGID_5_);}
	.st48{fill:url(#SVGID_6_);}
	.st49{opacity:0.55;fill:url(#SVGID_7_);}
	.st50{fill:#999999;}
	.st51{fill:#666666;}
	.st52{fill:url(#SVGID_8_);}
	.st53{fill:url(#path3947_6_);}
	.st54{opacity:0.6682;fill:url(#path3934_6_);enable-background:new    ;}
	.st55{fill:url(#SVGID_9_);}
	.st56{fill:url(#path1948_6_);}
	.st57{fill:url(#path1950_6_);}
	.st58{opacity:0.4438;fill:url(#path1894_6_);enable-background:new    ;}
	.st59{opacity:0.55;fill:url(#SVGID_10_);}
	.st60{fill:url(#SVGID_11_);}
	.st61{fill:url(#path3947_7_);}
	.st62{opacity:0.6682;fill:url(#path3934_7_);enable-background:new    ;}
	.st63{fill:url(#SVGID_12_);}
	.st64{fill:url(#path1948_7_);}
	.st65{fill:url(#path1950_7_);}
	.st66{opacity:0.4438;fill:url(#path1894_7_);enable-background:new    ;}
	.st67{opacity:0.55;fill:url(#SVGID_13_);}
	.st68{fill:url(#SVGID_14_);}
	.st69{opacity:0.55;fill:url(#SVGID_15_);}
	.st70{fill:url(#SVGID_16_);}
</style>
<g>
	<path class="st22" d="M286.8,113.2c0,0,6.5-7.8,6.8-8.4c1.1-1.5,3.9-1.4,4.8-1.4c0.9,0,173.8,0.2,173.8,0.2s4.6-0.3,5.9,1.8
		c0.4,0.6,6.4,7.5,6.4,7.5L286.8,113.2z"/>
	<path class="st24" d="M476.9,247.9H294.5c-4.8,0-8.7-3.9-8.7-8.7V117.3c0-4.8,3.9-8.7,8.7-8.7h182.4c4.8,0,8.7,3.9,8.7,8.7v121.9
		C485.6,244,481.6,247.9,476.9,247.9z"/>
	<circle class="st25" cx="386.6" cy="236.4" r="5"/>
	<rect x="364.9" y="247.9" class="st39" width="41.5" height="12.7"/>
	<path class="st40" d="M415.3,271.9h-59.4c-2.8,0-4.2-2.6-2.1-4l10.8-7.2h42.4l10.4,7.1C419.6,269.1,418.2,271.9,415.3,271.9z"/>
	<rect x="296.3" y="117.7" class="st1" width="178.7" height="103.1"/>
	<path class="st23" d="M294.5,108.6c-4.8,0-8.7,3.9-8.7,8.7v121.9c0,4.8,3.9,8.7,8.7,8.7h92.1V108.6H294.5z"/>
	<rect x="296.3" y="117.7" class="st4" width="90.3" height="103.1"/>
	<rect x="364.9" y="247.9" class="st40" width="21.6" height="12.7"/>
	<path class="st24" d="M386.5,260.6h-21.9l-10.8,7.2c-2.1,1.4-0.8,4,2.1,4h30.6V260.6z"/>
	<path class="st14" d="M386.6,231.4c-2.7,0-5,2.2-5,5s2.2,5,5,5V231.4z"/>
	<rect x="314.7" y="132.6" class="st14" width="144.3" height="79.1"/>
	<g>
		<rect x="314.7" y="129.7" class="st41" width="144.3" height="8.5"/>
		<g>
			<path class="st42" d="M323.8,134c0,0.9-0.7,1.6-1.6,1.6s-1.6-0.7-1.6-1.6c0-0.9,0.7-1.6,1.6-1.6S323.8,133.1,323.8,134z"/>
			<path class="st43" d="M331.2,134c0,0.9-0.7,1.6-1.6,1.6s-1.6-0.7-1.6-1.6c0-0.9,0.7-1.6,1.6-1.6S331.2,133.1,331.2,134z"/>
			<path class="st44" d="M338.7,134c0,0.9-0.7,1.6-1.6,1.6c-0.9,0-1.6-0.7-1.6-1.6c0-0.9,0.7-1.6,1.6-1.6
				C337.9,132.3,338.7,133.1,338.7,134z"/>
		</g>
	</g>
	<rect x="386.9" y="132.6" class="st45" width="72.1" height="79.1"/>
	<g>
		<rect x="386.5" y="129.7" class="st46" width="72.5" height="8.5"/>
	</g>
</g>
</svg>
