<svg version="1.1" id="Layer_1" xmlns="http://www.w3.org/2000/svg" xmlns:xlink="http://www.w3.org/1999/xlink" x="0px" y="0px"
	 viewBox="0 0 960 655" style="enable-background:new 0 0 960 655;" xml:space="preserve">
<style type="text/css">
	.st0{fill:#FFD074;}
	.st1{fill:#FAAB41;}
	.st2{fill:#FFFFFF;}
	.st3{fill:#6D6E70;}
	.st4{fill:#F19425;}
	.st5{fill:#58595B;}
	.st6{fill:#E5E5E4;}
	.st7{fill:#D3D3D3;}
</style>
<g>
	<g>
		<path class="st0" d="M412.8,136.1c0.7-3.9,2.5-5.5,2.6-5.5c1.6-1,4.8-0.9,5.1-0.9s50.5,0.2,50.5,0.2s4-0.3,4.9,1.2
			c0.2,0.3,2.2,4.1,2.2,4.1L412.8,136.1z"/>
		<path class="st1" d="M473.7,257.7h-56.2c-2.6,0-4.7-2.1-4.7-4.7V136.7c0-2.6,2.1-4.7,4.7-4.7h56.2c2.6,0,4.7,2.1,4.7,4.7v116.2
			C478.4,255.6,476.3,257.7,473.7,257.7z"/>
		<circle class="st2" cx="445.6" cy="244.8" r="5.6"/>
		<rect x="419.7" y="140.5" class="st3" width="51.8" height="91.4"/>
	</g>
	<g>
		<path class="st4" d="M473.7,132h-28.2v125.7h28.2c2.6,0,4.7-2.1,4.7-4.7V136.7C478.4,134.1,476.3,132,473.7,132z"/>
		<rect x="445.5" y="140.5" class="st5" width="26" height="91.4"/>
		<path class="st6" d="M445.6,239.3C445.6,239.3,445.5,239.3,445.6,239.3l-0.1,11.1h0.1c3.1,0,5.6-2.5,5.6-5.6
			S448.7,239.3,445.6,239.3z"/>
	</g>
	<g>
		<path class="st7" d="M448,168.1c2-2.6,4.7-2.6,4.7-2.6s0.4,2.5-1.6,4.8c-2.1,2.5-4.5,2.1-4.5,2.1S446.2,170.4,448,168.1z"/>
		<path class="st2" d="M446.9,174.1c1,0,2.9-1.4,5.4-1.4c4.2,0,5.9,3,5.9,3s-3.3,1.7-3.3,5.7c0,4.6,4.1,6.1,4.1,6.1s-2.8,8-6.7,8
			c-1.8,0-3.1-1.2-5-1.2s-3.8,1.2-5,1.2c-3.5,0-7.9-7.6-7.9-13.7c0-6,3.7-9.1,7.3-9.1C443.9,172.8,445.7,174.1,446.9,174.1z"/>
	</g>
	<path class="st7" d="M454.9,181.4c0-4,3.3-5.7,3.3-5.7s-1.7-3-5.9-3c-2.5,0-4.4,1.4-5.4,1.4c-0.4,0-0.8-0.1-1.3-0.3v20.9
		c0.6-0.2,1.2-0.3,1.8-0.3c1.9,0,3.2,1.2,5,1.2c3.8,0,6.7-8,6.7-8S454.9,186,454.9,181.4z"/>
</g>
</svg>
