<svg version="1.1" id="Layer_1" xmlns="http://www.w3.org/2000/svg" xmlns:xlink="http://www.w3.org/1999/xlink" x="0px" y="0px"
	 viewBox="0 0 960 655" style="enable-background:new 0 0 960 655;" xml:space="preserve">
<style type="text/css">
	.st0{fill:#999999;}
	.st1{fill:#666666;}
	.st2{fill:url(#SVGID_1_);}
	.st3{fill:#FFFFFF;}
	.st4{fill:none;}
</style>
<g>
	<path class="st0" d="M866.2,546.6c-1.1-0.2,3.9-6,3.9-6s-3.2,1.3-5.9,2.2c-4.7,1.6-6.6-3.3-6.6-5.1c0-1.2,1.5-4.6,1.5-4.6
		c-2.8,0.8-4.4,3.1-5.1,3c-0.9-0.2-9.9-9.7-15.3-10c-6.2-0.2-31.9,12.7-38.3,18.3c-5.6,4.9-10.1,19.1-10.5,20.8
		c-0.7,2.7-2.6,11.2-3.1,14.8h11.1c2.2-3.9,5.7-8.1,10.2-10.5c6.4-3.4,15.2-2.9,16.2,0.3c1,3,0.6,7.5,0.5,10.1h11.4
		c4.2-13.8,5.5-16.8,14-23.2c2.3-1.8,7.7,1.9,9.4,3.4c1.6,1.5,2.9,0.8,7.7-2c5.9-3.4,12.2-19.6,12.2-19.6
		C876.4,541.8,867.3,546.7,866.2,546.6z"/>
	<path class="st1" d="M874.8,548.7c0,0-8.6,11.1-12.7,9.4c-4.2-1.7-5.7-8.6-12.4-7.1c-6.7,1.4-14.2,29-14.2,29h1
		c0,0,2.1-13.6,12.8-22.2c1.2-0.9,4.1-0.9,6.7,0.1c2,0.8,3.2,2.1,3.9,2.5c0.7,0.5,1.4,1.1,4.5-0.5
		C867.6,558.4,870.4,557.2,874.8,548.7z"/>
	<path class="st1" d="M796.9,580c0,0,18.2-26.1,28.2-15.7c5.7,5.9,0.2,15.8,0.2,15.8h-0.5c0,0,0.8-9.7-2.1-11.6
		c-3.9-2.6-17-2.3-24.7,11.6L796.9,580z"/>
	<linearGradient id="SVGID_1_" gradientUnits="userSpaceOnUse" x1="830.5244" y1="580.7925" x2="830.5244" y2="595.2345">
		<stop  offset="0" style="stop-color:#E6E6E6"/>
		<stop  offset="1" style="stop-color:#B3B3B3"/>
	</linearGradient>
	<path class="st2" d="M863.2,544.3c-1.4,0.6-5.2-0.2-6.7-4.3c-0.5-1.4,1.8-5.9,1.3-5.8c-0.5,0.2-2.8,3.1-3.8,3.9
		c-0.4,0.3-1.6-0.2-2.2-1c-10.8-11.5-15-9.7-17.8-8.8c-3,0.9-14.2,5.9-22.3,10.4c-7.9,4.4-8.9,4.5-12,8.5
		c-2.6,3.3-6.2,12.2-6.2,12.2s11.8-20.2,34.4-20.8c12.9-0.3,11.5,12.6,11.5,12.6c2.1-5,6.9-10.2,9.9-10.2c3.5,0,9.2,5.4,10.6,5.2
		c2.3-0.2,7.7-3.8,7.7-3.8S864.6,543.7,863.2,544.3z"/>
	<path class="st3" d="M857.6,534.4c-0.8,0.6-3.3,3-3.9,3.6c-2.3-2.6-9.2-9.9-15.8-10.8c-2.8-0.4-20.4,8.6-20.4,8.6
		s18.4-7.7,21.8-5.9c3.5,1.9,9.6,5.9,12.9,8c1.3,0.8,2.3,1.2,2.3,1.2C855,537,857.6,534.4,857.6,534.4z"/>
	<path class="st3" d="M859.1,543.5c0,0,3.7,1.2,8.5-1.1C867.5,542.5,862.5,546.6,859.1,543.5z"/>
	<path class="st3" d="M866.2,547.4c0,0,5.2-0.7,11.6-6C877.8,541.4,869.3,550.1,866.2,547.4z"/>
</g>
<rect x="0" y="1" class="st4" width="960" height="655"/>
</svg>
