<?xml version="1.0" encoding="utf-8"?>
<!-- Generator: Adobe Illustrator 19.2.0, SVG Export Plug-In . SVG Version: 6.00 Build 0)  -->
<svg version="1.1" id="Layer_1" xmlns="http://www.w3.org/2000/svg" xmlns:xlink="http://www.w3.org/1999/xlink" x="0px" y="0px"
	 viewBox="0 0 960 655" style="enable-background:new 0 0 960 655;" xml:space="preserve">
<style type="text/css">
	.st0{fill:#A72D3A;}
	.st1{fill:url(#SVGID_1_);}
	.st2{fill:url(#SVGID_2_);}
	.st3{clip-path:url(#SVGID_4_);}
	.st4{fill:url(#SVGID_5_);}
	.st5{fill:url(#SVGID_6_);}
	.st6{fill:url(#SVGID_7_);}
	.st7{fill:url(#SVGID_8_);}
	.st8{clip-path:url(#SVGID_10_);}
	.st9{fill:#FFFFFF;}
	.st10{fill:#C68078;}
	.st11{fill:#898686;}
	.st12{fill:#682D2F;}
	.st13{fill:url(#SVGID_11_);}
	.st14{fill:#76534F;}
	.st15{fill:#B67F79;}
	.st16{fill:#952834;}
	.st17{fill:url(#SVGID_12_);}
	.st18{fill:url(#SVGID_13_);}
	.st19{clip-path:url(#SVGID_15_);}
	.st20{fill:#A3514F;}
	.st21{fill:url(#SVGID_16_);}
	.st22{fill:#875854;}
	.st23{fill:#76292F;}
	.st24{fill:#7D3F3E;}
	.st25{fill:url(#SVGID_17_);}
	.st26{fill:#5D0A14;}
	.st27{fill:none;}
</style>
<g>
	<path class="st0" d="M483,592c0,0,0.1-16.8,0.1-33.9c0-33.1-2.8-35.5,12.1-35.5c14.8,0,41.3,0,41.3,0s0,32,0,47.7
		s2.9,21.9-13.6,21.9C506.4,592.2,483,592,483,592"/>
	
		<linearGradient id="SVGID_1_" gradientUnits="userSpaceOnUse" x1="0.495" y1="655.0634" x2="1.495" y2="655.0634" gradientTransform="matrix(12.7989 -6.7037 -6.7037 -12.7989 4907.3311 8936.2676)">
		<stop  offset="0" style="stop-color:#FFFFFF"/>
		<stop  offset="1" style="stop-color:#C0815E"/>
	</linearGradient>
	<path class="st1" d="M536.4,564l-0.6,1.4c0.2-0.1,0.4-0.1,0.6-0.2V564 M536.4,542.8v0.4V542.8L536.4,542.8 M524.3,538.3
		c2,4.5,4.7,11,7,16.7l5-12.3l-0.8-1.3C533.5,540.8,529.2,539.6,524.3,538.3 M526.6,522.9L526.6,522.9h0.6H526.6"/>
	
		<radialGradient id="SVGID_2_" cx="0.495" cy="655" r="1" gradientTransform="matrix(21.8355 0 0 -34.5373 504.3618 23179.1035)" gradientUnits="userSpaceOnUse">
		<stop  offset="0" style="stop-color:#D9ACA4"/>
		<stop  offset="1" style="stop-color:#A93E38"/>
	</radialGradient>
	<path class="st2" d="M526.5,522.9l-30.8,0.1h0.2l-0.6,1.1c4.5,2.9,17.4,11,24.3,12.9c1.6,0.4,3.3,0.9,4.9,1.3
		c-1.1-2.4-1.9-4.3-2.4-5c-2.3-3.9-4.9-4.4-4.9-4.4L526.5,522.9 M536.3,522.9h-9.2l7.2,0.5l-6,4.9l-3.2-3.9l10.4,16.9
		c0.4,0.1,0.6,0.2,0.8,0.2V522.9"/>
	<g>
		<g>
			<defs>
				<path id="SVGID_3_" d="M527.1,522.9h-0.6l-9.5,6c0,0,2.6,0.5,4.9,4.4c0.5,0.8,1.3,2.6,2.4,5c4.8,1.3,9.2,2.5,11.2,3.1
					l-10.4-16.9l3.2,3.9l6-4.9L527.1,522.9"/>
			</defs>
			<clipPath id="SVGID_4_">
				<use xlink:href="#SVGID_3_"  style="overflow:visible;"/>
			</clipPath>
			<g class="st3">
			</g>
		</g>
	</g>
	
		<radialGradient id="SVGID_5_" cx="0.495" cy="655" r="1" gradientTransform="matrix(21.8355 0 0 -34.5373 504.3618 23179.1035)" gradientUnits="userSpaceOnUse">
		<stop  offset="0" style="stop-color:#FFFFFF"/>
		<stop  offset="1" style="stop-color:#C17A66"/>
	</radialGradient>
	<path class="st4" d="M536.4,541.6c0,0.3,0,0.6,0,1l0.4-0.9C536.8,541.7,536.7,541.7,536.4,541.6"/>
	
		<radialGradient id="SVGID_6_" cx="1.4673" cy="655" r="0.4207" gradientTransform="matrix(21.8355 0 0 -34.5373 504.3618 23179.1035)" gradientUnits="userSpaceOnUse">
		<stop  offset="0" style="stop-color:#D9ACA4"/>
		<stop  offset="1" style="stop-color:#A93E38"/>
	</radialGradient>
	<path class="st5" d="M536.4,541.6v1l0,0C536.4,542.3,536.4,542,536.4,541.6L536.4,541.6"/>
	
		<radialGradient id="SVGID_7_" cx="0.495" cy="655" r="1" gradientTransform="matrix(21.8355 0 0 -34.5373 504.3618 23179.1035)" gradientUnits="userSpaceOnUse">
		<stop  offset="0" style="stop-color:#FFFFFF"/>
		<stop  offset="1" style="stop-color:#C17A66"/>
	</radialGradient>
	<polyline class="st6" points="536.4,543.2 536.4,564 536.6,563.6 536.4,543.2 	"/>
	
		<radialGradient id="SVGID_8_" cx="0.495" cy="655" r="1" gradientTransform="matrix(21.8355 0 0 -34.5373 504.3618 23179.1035)" gradientUnits="userSpaceOnUse">
		<stop  offset="0" style="stop-color:#D9ACA4"/>
		<stop  offset="1" style="stop-color:#A93E38"/>
	</radialGradient>
	<path class="st7" d="M531.4,555l-5.7,14c4.5-1.6,8.3-2.9,10-3.5C534.8,563.3,533.2,559.4,531.4,555 M536.4,542.6L536.4,542.6v0.2
		V542.6"/>
	<g>
		<g>
			<defs>
				<path id="SVGID_9_" d="M536.4,542.7l-5,12.3c1.8,4.4,3.4,8.3,4.3,10.5c0.1,0,0.1,0,0.2-0.1l0.6-1.4v-20.8L536.4,542.7
					L536.4,542.7"/>
			</defs>
			<clipPath id="SVGID_10_">
				<use xlink:href="#SVGID_9_"  style="overflow:visible;"/>
			</clipPath>
			<g class="st8">
			</g>
		</g>
	</g>
	<path class="st9" d="M527.4,592c-0.3,0-0.6,0.1-0.9,0.1l0.1,0.1l-11.4,0.1l12.8,0.3L527.4,592"/>
	<path class="st10" d="M526.1,591.7l0.3,0.3c0.3,0,0.6-0.1,0.9-0.1l-0.2-0.2C526.8,591.8,526.5,591.7,526.1,591.7 M502.7,572.4
		l7.2,2.7l-0.1-0.1L502.7,572.4"/>
	<path class="st11" d="M484.5,525.6l-0.3,0.3l-1.2,2.5l-0.9,64.2l33-0.3l-6.8-0.1c-2.6,0-5.2,0-7.7,0c-3.4,0.1-5.7,0.3-5.7,0.3
		s0-0.1,0.1-0.3c-7-0.2-12-0.2-12-0.2s0.1-16.8,0.1-33.9C483.1,538.3,482.1,529.5,484.5,525.6 M487.6,522.7l-1.2,1.1
		c1-0.5,2.3-0.9,3.9-1L487.6,522.7"/>
	<path class="st12" d="M502.8,592c-0.7,0-1.5,0.1-2.1,0.1c2.5,0,5.1,0,7.7,0L502.8,592 M509.9,575.1l0.3,0.3c0,0,0.1,0,0.1-0.1
		l-0.1-0.1L509.9,575.1 M490.3,522.8c-1.6,0.2-2.9,0.5-3.9,1l-1.9,1.8c-2.4,3.9-1.4,12.7-1.4,32.5c0,17.1-0.1,33.9-0.1,33.9
		s5.1,0,12.1,0.1c0-0.1,0.1-0.1,0.1-0.2h-1.1c0,0-1.1-10.8-0.7-16.4c0.4-5.6,2.1-5.6,2.1-5.6l7.2,2.6l-7.5-2.8l-11.6-25.9l11.7-19.6
		c-1-0.7-1.6-1.1-1.6-1.1h2.1L490.3,522.8"/>
	
		<radialGradient id="SVGID_11_" cx="0.495" cy="655" r="1" gradientTransform="matrix(21.8355 0 0 -34.5373 504.3618 23179.1035)" gradientUnits="userSpaceOnUse">
		<stop  offset="0" style="stop-color:#7D6663"/>
		<stop  offset="1" style="stop-color:#68332E"/>
	</radialGradient>
	<path class="st13" d="M495.7,523h-2.1c0,0,0.6,0.4,1.6,1.1l0.6-1.1H495.7"/>
	<path class="st11" d="M526.4,592.1c-1.1,0.1-2.3,0.1-3.6,0.1c-4.5,0-9.6,0-14.5,0l6.8,0.1l11.4-0.1L526.4,592.1"/>
	<path class="st14" d="M520,591.6c-5.1,0-11.9,0.2-17.2,0.4l5.5,0.1c4.9,0,10,0,14.5,0c1.3,0,2.5,0,3.6-0.1l-0.3-0.3
		c-0.6,0-1.3,0-2-0.1C522.9,591.6,521.5,591.6,520,591.6 M495.5,569.8c0,0-1.8,0-2.1,5.6c-0.4,5.6,0.7,16.4,0.7,16.4h1.1
		c1.1-2.3,6.3-12.1,14.9-16.4l0,0l-0.3-0.3l-7.2-2.7L495.5,569.8"/>
	<path class="st15" d="M533.6,590.1c-1,0.7-2.4,1.3-4.3,1.6C531.1,591.5,532.5,591.1,533.6,590.1 M536.6,565.2c0,0-0.1,0-0.2,0.1
		v2.1l0,0c0,1.1,0,2.1,0,3c0,2.9,0.1,5.5,0.2,7.8C537,569,536.6,565.2,536.6,565.2"/>
	<path class="st16" d="M525.7,569c-5.1,1.9-10.9,4.2-15.4,6.4l2.2,2.3l7,6.7L525.7,569 M535.8,565.7l-10,24.7l1.4,1.3
		c0.1,0,0.2,0,0.3,0c0.7,0,1.4,0,2-0.1c1.8-0.3,3.2-0.9,4.3-1.6c1.6-1.5,2.5-4.2,2.8-9.2c0.1-1,0.1-1.9,0.2-2.8
		c-0.1-2.3-0.2-4.9-0.2-7.8c0-0.9,0-1.9,0-3C536.4,567.3,536.2,566.7,535.8,565.7"/>
	
		<linearGradient id="SVGID_12_" gradientUnits="userSpaceOnUse" x1="0.495" y1="653.5453" x2="1.495" y2="653.5453" gradientTransform="matrix(12.7989 -6.7037 -6.7037 -12.7989 4907.3311 8936.2676)">
		<stop  offset="0" style="stop-color:#B67F79"/>
		<stop  offset="1" style="stop-color:#A05245"/>
	</linearGradient>
	<path class="st17" d="M536.4,565.3c-0.1,0-0.3,0.1-0.6,0.2l-0.1,0.2c0.4,1,0.7,1.6,0.7,1.6l0,0L536.4,565.3"/>
	
		<radialGradient id="SVGID_13_" cx="0.495" cy="655" r="1" gradientTransform="matrix(21.8355 0 0 -34.5373 504.3618 23179.1035)" gradientUnits="userSpaceOnUse">
		<stop  offset="0" style="stop-color:#AA635E"/>
		<stop  offset="1" style="stop-color:#963034"/>
	</radialGradient>
	<path class="st18" d="M535.7,565.5c-1.7,0.6-5.5,1.8-10,3.5l-6.3,15.4l6.3,6.1l10-24.7C535.7,565.6,535.7,565.6,535.7,565.5"/>
	<g>
		<g>
			<defs>
				<path id="SVGID_14_" d="M535.9,565.4c-0.1,0-0.1,0-0.2,0.1c0,0.1,0.1,0.1,0.1,0.2L535.9,565.4"/>
			</defs>
			<clipPath id="SVGID_15_">
				<use xlink:href="#SVGID_14_"  style="overflow:visible;"/>
			</clipPath>
			<g class="st19">
			</g>
		</g>
	</g>
	<path class="st20" d="M525.7,590.4l-0.3,0.7l0.6,0.7c0.3,0,0.7,0,1,0L525.7,590.4 M512.5,577.6l6.8,7.1l0.1-0.3L512.5,577.6"/>
	
		<radialGradient id="SVGID_16_" cx="0.495" cy="655" r="1" gradientTransform="matrix(21.8355 0 0 -34.5373 504.3618 23179.1035)" gradientUnits="userSpaceOnUse">
		<stop  offset="0" style="stop-color:#AF6F69"/>
		<stop  offset="1" style="stop-color:#A3544F"/>
	</radialGradient>
	<polyline class="st21" points="519.4,584.4 519.3,584.7 525.5,591.1 525.7,590.4 519.4,584.4 	"/>
	<path class="st22" d="M495.1,592.1c-0.1,0.2-0.1,0.3-0.1,0.3s2.3-0.1,5.7-0.3C498.7,592.1,496.9,592.1,495.1,592.1"/>
	<path class="st23" d="M495.2,591.9c0,0.1-0.1,0.2-0.1,0.2c1.8,0,3.6,0,5.6,0c0.7,0,1.4-0.1,2.1-0.1L495.2,591.9 M510.3,575.4
		c0,0-0.1,0-0.1,0.1l2.3,2.2L510.3,575.4"/>
	<path class="st24" d="M510.2,575.4C510.1,575.4,510.1,575.4,510.2,575.4c-8.7,4.3-13.8,14.1-14.9,16.4l7.6,0.2
		c5.2-0.2,12.1-0.4,17.2-0.4c1.6,0,3,0,4.1,0.1c0.7,0,1.4,0.1,2,0.1l-0.6-0.7l-0.2,0.4l-8.6-0.4l2.6-6.4l-6.8-7.1L510.2,575.4"/>
	
		<radialGradient id="SVGID_17_" cx="0.495" cy="655" r="1" gradientTransform="matrix(21.8355 0 0 -34.5373 504.3618 23179.1035)" gradientUnits="userSpaceOnUse">
		<stop  offset="0" style="stop-color:#84504D"/>
		<stop  offset="1" style="stop-color:#7E413E"/>
	</radialGradient>
	<polyline class="st25" points="519.3,584.7 516.7,591.1 525.3,591.5 525.5,591.1 519.3,584.7 	"/>
	<path class="st9" d="M488.1,575.7v10.4h2.7v-2.7l2.4,2.4h4.1l-3.2-3.2c0,0,2.3,0,2.5-3.4c0-3.1-2.3-3.5-5-3.5H488.1z M490.9,578.6
		h2.3v1.9h-2.3V578.6z"/>
	<path class="st9" d="M502.4,575.8c-1.5,0-3.5,0.1-3.5,2.9v7.2h2.7v-1.8h2.6v1.7h2.7v-7.6c0-2.4-2.6-2.5-4.1-2.5
		C502.8,575.8,502.6,575.8,502.4,575.8z M501.7,578.4h2.6v2.9h-2.6V578.4z"/>
	<rect x="509.7" y="575.8" class="st9" width="2.8" height="10"/>
	<polygon class="st9" points="515.5,575.9 515.5,585.9 522.3,585.9 522.3,583.2 518.3,583.2 518.3,575.9 	"/>
	<path class="st9" d="M531.3,575.8v2.7h-4.5v1c0,0,0.9,0,1.9,0s3.1,0,3.1,3.1s-1.5,3.4-4.4,3.4s-3.6,0-3.6,0v-2.4c0,0,2.9,0,4.1,0
		c1.2,0,1.3-0.4,1.3-0.8c0-0.4-0.6-0.5-1.9-0.5c-1.3,0-3.7-0.6-3.7-3.1s1.2-3.4,3.7-3.4C529.9,575.8,531.3,575.8,531.3,575.8
		L531.3,575.8z"/>
	<path class="st9" d="M490.6,572.8H514c0,0-5.2-11.8-3.9-22.7c1.3-10.8,9.9-15.8,14.7-16.3c4.9-0.5,7.5,2.5,7.5,2.5l1.1-1.6
		c0,0-7-7.1-15.8-6.3s-14.9,6.6-18.7,13.7s-6,12-7.5,19.4C489.9,568.9,490.6,572.8,490.6,572.8z"/>
	<polygon class="st9" points="485.9,561 490.5,561.3 489.7,565.9 485.4,565.4 	"/>
	<polygon class="st9" points="493.1,551.3 494.4,547.8 490.3,546.2 489,549.9 	"/>
	<polygon class="st9" points="498.9,539.4 501.2,536.6 498.1,534.6 495.7,537.3 	"/>
	<polygon class="st9" points="505.1,528.5 507.2,531.1 510.1,529.4 508,527 	"/>
	<polygon class="st9" points="515.4,525.6 516,528.2 519.6,528.1 519.2,525.8 	"/>
	<polygon class="st9" points="527.7,528.3 527.6,529.9 530.1,531.2 530.6,530.4 	"/>
	<polygon class="st9" points="527.2,535.1 527.2,536.4 529.5,536.7 529.5,535.7 	"/>
	<polygon class="st9" points="519.6,536.3 520.7,538.4 522.4,537.1 522.1,535.7 	"/>
	<polygon class="st9" points="516,539 517.7,541.6 516.7,543.5 514.1,540.7 	"/>
	<polygon class="st9" points="512.4,546.3 511.3,548.6 514.3,551.2 515,548.3 	"/>
	<polygon class="st9" points="511.2,554.3 511,557.4 514.7,559 514.6,556.1 	"/>
	<polygon class="st9" points="512.3,565.3 513.1,568.5 517.8,568.7 516.1,565.3 	"/>
	<path class="st26" d="M483,592h1.5c0,0,0.1-16.8,0.1-33.9c0-9.1-0.2-15.8-0.2-20.8c0-3.3,0.1-5.9,0.4-7.7c0.2-1.4,0.5-2.4,0.9-3.1
		c0.3-0.5,0.6-0.9,1-1.2c0.6-0.4,1.6-0.8,3-1s3.2-0.3,5.4-0.3c14.8,0,41.3,0,41.3,0v-1.5h-1.5c0,0,0,2,0,5.2c0,9.7,0,30.7,0,42.5
		c0,3.5,0.1,6.5,0.1,9c0,2.2-0.1,4.1-0.4,5.6c-0.2,1.1-0.5,2-1,2.6c-0.3,0.5-0.7,0.9-1.2,1.3c-0.8,0.6-1.9,1-3.5,1.4
		c-1.6,0.3-3.6,0.5-6.1,0.5c-7.9,0-17.9,0-25.9-0.1c-4,0-7.5,0-10-0.1c-2.5,0-4,0-4,0l0,0v1.6h1.5H483v1.5l0,0l0,0
		c0,0,24.1,0.2,39.9,0.2c3.2,0,5.7-0.2,7.7-0.8c1.5-0.4,2.8-1,3.9-1.8c0.8-0.6,1.4-1.4,1.9-2.2c0.7-1.3,1.1-2.7,1.4-4.3
		c0.2-1.6,0.3-3.3,0.3-5.3c0-2.6-0.1-5.6-0.1-9c0-7.9,0-19.8,0-29.7c0-5,0-9.5,0-12.7s0-5.2,0-5.2v-1.5h-1.5c0,0-26.5,0-41.3,0
		c-2.7,0-4.9,0.1-6.8,0.4c-1.4,0.3-2.6,0.7-3.6,1.5c-0.8,0.6-1.4,1.4-1.8,2.2c-0.7,1.3-1,2.9-1.3,4.9c-0.2,2-0.3,4.3-0.3,7.1
		c0,5.1,0.2,11.8,0.2,20.8c0,8.5,0,17-0.1,23.3c0,3.2,0,5.8,0,7.6s0,2.9,0,2.9v1.5h1.5L483,592L483,592z"/>
</g>
<rect class="st27" width="960" height="655"/>
</svg>
