<svg version="1.1" id="Layer_1" xmlns="http://www.w3.org/2000/svg" xmlns:xlink="http://www.w3.org/1999/xlink" x="0px" y="0px"
	 viewBox="0 0 960 655" style="enable-background:new 0 0 960 655;" xml:space="preserve">
<style type="text/css">
	.st0{fill:url(#path1948_1_);}
	.st1{fill:url(#path1950_1_);}
	.st2{fill:none;}
</style>
<g>
	
		<linearGradient id="path1948_1_" gradientUnits="userSpaceOnUse" x1="511.5942" y1="-263.1892" x2="570.5947" y2="-313.9512" gradientTransform="matrix(0.5625 0 0 -0.568 27.7843 376.7889)">
		<stop  offset="0" style="stop-color:#5C9FD3"/>
		<stop  offset="1" style="stop-color:#316A99"/>
	</linearGradient>
	<path id="path1948_3_" class="st0" d="M346.8,524.5c-2.5,0-4.8,0.2-6.9,0.6c-6.1,1.1-7.3,3.4-7.3,7.5v5.5h14.5v1.8h-14.5h-5.4
		c-4.2,0-7.9,2.5-9.1,7.4c-1.3,5.5-1.4,9,0,14.7c1,4.3,3.5,7.4,7.7,7.4h5v-6.6c0-4.8,4.1-9,9.1-9h14.5c4,0,7.3-3.3,7.3-7.4v-13.8
		c0-3.9-3.3-6.9-7.3-7.5C351.8,524.7,349.3,524.5,346.8,524.5z M338.9,529c1.5,0,2.7,1.2,2.7,2.8c0,1.5-1.2,2.8-2.7,2.8
		c-1.5,0-2.7-1.2-2.7-2.8C336.2,530.2,337.4,529,338.9,529z"/>
	
		<linearGradient id="path1950_1_" gradientUnits="userSpaceOnUse" x1="593.4046" y1="-344.6744" x2="572.3356" y2="-314.8654" gradientTransform="matrix(0.5625 0 0 -0.568 27.7843 376.7889)">
		<stop  offset="0" style="stop-color:#FFD43D"/>
		<stop  offset="1" style="stop-color:#FEE875"/>
	</linearGradient>
	<path id="path1950_3_" class="st1" d="M363.4,540.1v6.4c0,5-4.2,9.2-9.1,9.2h-14.5c-4,0-7.3,3.4-7.3,7.4v13.8
		c0,3.9,3.4,6.2,7.3,7.4c4.6,1.4,9,1.6,14.5,0c3.7-1.1,7.3-3.2,7.3-7.4v-5.5h-14.5v-1.8h14.5h7.3c4.2,0,5.8-2.9,7.3-7.4
		c1.5-4.5,1.5-8.9,0-14.7c-1-4.2-3-7.4-7.3-7.4H363.4z M355.2,575c1.5,0,2.7,1.2,2.7,2.8c0,1.5-1.2,2.8-2.7,2.8
		c-1.5,0-2.7-1.2-2.7-2.8C352.5,576.3,353.7,575,355.2,575z"/>
</g>
<rect x="0" y="1" class="st2" width="960" height="655"/>
</svg>
