<?xml version="1.0" encoding="utf-8"?>
<!-- Generator: Adobe Illustrator 19.2.1, SVG Export Plug-In . SVG Version: 6.00 Build 0)  -->
<svg version="1.1" id="Layer_1" xmlns="http://www.w3.org/2000/svg" xmlns:xlink="http://www.w3.org/1999/xlink" x="0px" y="0px"
	 viewBox="0 0 960 655" style="enable-background:new 0 0 960 655;" xml:space="preserve">
<style type="text/css">
	.st0{fill:none;stroke:#EF3E32;stroke-miterlimit:10;}
	.st1{fill:#FFFFFF;stroke:#EF3E32;stroke-width:2;stroke-miterlimit:10;}
	.st2{fill:#EF3E32;}
</style>
<line class="st0" x1="132.9" y1="416.3" x2="854.3" y2="416.3"/>
<circle class="st1" cx="621.3" cy="416.3" r="6.8"/>
<circle class="st1" cx="780.1" cy="416.3" r="6.8"/>
<circle class="st1" cx="457.6" cy="416.3" r="6.8"/>
<circle class="st1" cx="296.6" cy="416.3" r="6.8"/>
<circle class="st1" cx="132.9" cy="416.3" r="6.8"/>
<g>
	<path class="st2" d="M814.9,378.5c0.9,0.6,2.2,1,3.6,1c2.4,0,3.9-1.3,3.9-3.3c0-1.8-0.9-2.9-3.3-3.8c-2.5-0.9-4.2-2.2-4.2-4.5
		c0-2.4,2-4.1,4.7-4.1c1.5,0,2.7,0.5,3.1,0.8l-0.4,1.1c-0.4-0.3-1.5-0.8-2.9-0.8c-2.5,0-3.5,1.6-3.5,3c0,1.8,1.1,2.7,3.3,3.6
		c2.7,1.1,4.1,2.2,4.1,4.7c0,2.4-1.7,4.5-5.1,4.5c-1.3,0-3-0.5-3.9-1.1L814.9,378.5z"/>
	<path class="st2" d="M826.8,374.2c0,3.6,1.9,5.1,4.3,5.1c1.7,0,2.6-0.3,3.2-0.6l0.3,0.9c-0.5,0.3-1.6,0.8-3.6,0.8
		c-3.3,0-5.4-2.4-5.4-5.8c0-3.9,2.2-6.3,5.2-6.3c3.8,0,4.5,3.6,4.5,5.2c0,0.3,0,0.5,0,0.8H826.8z M834.1,373.4
		c0-1.6-0.6-4.1-3.5-4.1c-2.5,0-3.6,2.2-3.9,4.1H834.1z"/>
	<path class="st2" d="M838.2,372.2c0-1.2,0-2.4-0.1-3.4h1v2.4l0,0c0.5-1.5,1.6-2.5,3.3-2.5c0.2,0,0.3,0,0.5,0v1c-0.1,0-0.3,0-0.6,0
		c-1.6,0-2.7,1.4-3,3.2c0,0.3-0.1,0.8-0.1,1.1v6.3h-1.2v-7.9L838.2,372.2L838.2,372.2z"/>
	<path class="st2" d="M845.7,368.7l2.7,7.2c0.5,1.2,0.8,2.1,1.2,3l0,0c0.3-0.9,0.8-1.9,1.2-3l2.7-7.2h1.2l-4.6,11.5H849l-4.5-11.5
		H845.7z"/>
	<path class="st2" d="M856.9,374.2c0,3.6,2,5.1,4.4,5.1c1.6,0,2.5-0.3,3.1-0.6l0.3,0.9c-0.4,0.3-1.6,0.8-3.6,0.8
		c-3.3,0-5.4-2.4-5.4-5.8c0-3.9,2.2-6.3,5.2-6.3c3.8,0,4.5,3.6,4.5,5.2c0,0.3,0,0.5,0,0.8H856.9z M864.3,373.4
		c0-1.6-0.6-4.1-3.5-4.1c-2.5,0-3.6,2.2-3.9,4.1H864.3z"/>
	<path class="st2" d="M868.4,372.2c0-1.2,0-2.4-0.1-3.4h1.1v2.4l0,0c0.4-1.5,1.6-2.5,3.3-2.5c0.1,0,0.3,0,0.5,0v1
		c-0.2,0-0.3,0-0.6,0c-1.6,0-2.7,1.4-3,3.2c0,0.3-0.1,0.8-0.1,1.1v6.3h-1.2v-7.9L868.4,372.2L868.4,372.2z"/>
	<path class="st2" d="M880.8,364.2c0.9-0.2,2.1-0.3,3.3-0.3c2,0,3.3,0.5,4.2,1.4c0.6,0.6,1,1.5,1,2.7c0,1.7-1.2,3-2.9,3.6l0,0
		c1.4,0.3,3.4,1.5,3.4,4.2c0,1.3-0.4,2.4-1.2,3.1c-1.1,1.1-2.9,1.5-5.1,1.5c-1.2,0-2.1-0.1-2.9-0.1L880.8,364.2L880.8,364.2z
		 M881.9,371.1h2.4c2.4,0,3.8-1.4,3.8-3.1c0-2.2-1.8-3.2-4.2-3.2c-1.1,0-1.7,0-2.1,0.2v6.1H881.9z M881.9,379.2
		c0.5,0.1,1.2,0.1,2,0.1c2.4,0,4.8-0.9,4.8-3.6c0-2.5-2.2-3.6-4.8-3.6h-2.1v7.1L881.9,379.2L881.9,379.2z"/>
	<path class="st2" d="M892.8,372.2c0-1.2,0-2.4-0.2-3.4h1.1v2.4l0,0c0.4-1.5,1.6-2.5,3.3-2.5c0.1,0,0.3,0,0.4,0v1
		c-0.1,0-0.3,0-0.6,0c-1.6,0-2.7,1.4-3,3.2c0,0.3-0.1,0.8-0.1,1.1v6.3h-1.2v-7.9L892.8,372.2L892.8,372.2z"/>
	<path class="st2" d="M907.2,377.4c0,0.9,0,1.8,0.2,2.7h-1.1l-0.1-1.6l0,0c-0.6,0.9-1.8,1.9-3.8,1.9c-2.4,0-3.5-1.6-3.5-3.1
		c0-2.7,2.4-4.2,7.1-4.2v-0.3c0-1.2-0.1-3.4-3-3.4c-1.1,0-2.1,0.3-2.9,0.9l-0.3-0.9c1-0.8,2.4-1.1,3.4-1.1c3.3,0,4.1,2.6,4.1,4.5
		L907.2,377.4L907.2,377.4z M906,374.1c-2.6,0-5.9,0.3-5.9,3c0,1.6,1,2.4,2.2,2.4c2,0,3-1.2,3.5-2.2c0.1-0.3,0.1-0.4,0.1-0.8
		L906,374.1L906,374.1z"/>
	<path class="st2" d="M911.4,366.3c-0.6,0-0.9-0.4-0.9-1.1c0-0.6,0.4-1.1,0.9-1.1s0.9,0.4,0.9,1.1
		C912.3,365.9,912,366.3,911.4,366.3L911.4,366.3z M910.8,380.2v-11.5h1.2v11.5H910.8z"/>
	<path class="st2" d="M915.9,371.4c0-1.1,0-1.8-0.1-2.7h1.1v2.1l0,0c0.6-1.4,2.1-2.4,3.9-2.4c1.1,0,4.1,0.6,4.1,4.8v6.9h-1.2v-6.8
		c0-2.1-0.8-4.1-3.2-4.1c-1.6,0-3,1.2-3.4,2.7c0,0.3-0.1,0.6-0.1,1.1v7.2h-1.2v-8.9L915.9,371.4L915.9,371.4z"/>
	<path class="st2" d="M928.2,378.8c0.6,0.5,1.5,0.8,2.6,0.8c1.8,0,2.7-1,2.7-2.2c0-1.2-0.8-1.9-2.4-2.5c-2-0.8-3-1.8-3-3.2
		c0-1.7,1.3-3.2,3.6-3.2c1.1,0,2,0.3,2.6,0.8l-0.4,0.9c-0.5-0.3-1.2-0.8-2.2-0.8c-1.5,0-2.2,0.9-2.2,1.9c0,1.2,0.8,1.6,2.4,2.4
		c1.8,0.8,3,1.7,3,3.5c0,1.9-1.5,3.3-3.9,3.3c-1.1,0-2.1-0.3-3-0.8L928.2,378.8z"/>
</g>
<line class="st0" x1="854.1" y1="416.3" x2="873.1" y2="388.2"/>
</svg>
