<?xml version="1.0" encoding="utf-8"?>
<!-- Generator: Adobe Illustrator 19.2.0, SVG Export Plug-In . SVG Version: 6.00 Build 0)  -->
<svg version="1.1" id="Layer_2" xmlns="http://www.w3.org/2000/svg" xmlns:xlink="http://www.w3.org/1999/xlink" x="0px" y="0px"
	 viewBox="0 0 960.8 613.5" style="enable-background:new 0 0 960.8 613.5;" xml:space="preserve">
<style type="text/css">
	.st0{fill:#FFD074;}
	.st1{fill:#F29525;}
	.st2{fill:#E5E5E5;}
	.st3{fill:#BC6228;}
	.st4{fill:#D77B28;}
	.st5{fill:#58595B;}
	.st6{fill:#FAAC42;}
	.st7{fill:#6D6E71;}
	.st8{fill:#FFFFFF;}
	.st9{fill:#E2E2E2;}
	.st10{fill:#F37665;}
	.st11{fill:#FBC153;}
	.st12{fill:#64BF72;}
	.st13{fill:#E8E8E8;}
	.st14{fill:#C6C6C5;}
	.st15{fill:#D3D3D3;}
	.st16{fill:#D1D3D4;}
	.st17{fill:#414042;}
	.st18{fill:#808285;}
	.st19{fill:#ED6E34;}
	.st20{fill:#E6E7E8;}
	.st21{fill:none;stroke:#58595B;stroke-width:2;stroke-linecap:round;stroke-miterlimit:10;stroke-dasharray:2,6;}
	.st22{fill:url(#SVGID_1_);}
	.st23{fill:url(#SVGID_2_);}
	.st24{fill:url(#SVGID_3_);}
	.st25{opacity:0.6;fill:url(#XMLID_46_);enable-background:new    ;}
	.st26{fill:#8DC63F;}
	.st27{fill:url(#SVGID_4_);}
	.st28{opacity:0.6;fill:url(#XMLID_47_);enable-background:new    ;}
	.st29{fill:url(#SVGID_5_);}
	.st30{opacity:0.6;fill:url(#XMLID_48_);enable-background:new    ;}
	.st31{fill:url(#SVGID_6_);}
	.st32{opacity:0.6;fill:url(#XMLID_49_);enable-background:new    ;}
	.st33{fill:url(#SVGID_7_);}
	.st34{opacity:0.6;fill:url(#XMLID_50_);enable-background:new    ;}
</style>
<g id="Layer_1">
	<g>
		<path class="st0" d="M124.1,14.1c0,0,8.1-9.8,8.5-10.4c1.4-1.9,4.8-1.7,6-1.7c1.2,0,216.3,0.3,216.3,0.3s5.6-0.4,7.3,2.2
			c0.4,0.6,7.9,9.4,7.9,9.4L124.1,14.1z"/>
		<path class="st1" d="M360.6,181.8h-227c-6,0-10.9-4.9-10.9-10.9V19.3c0-6,4.9-10.9,10.9-10.9h226.9c6,0,10.9,4.9,10.9,10.9V171
			C371.3,176.9,366.6,181.8,360.6,181.8z"/>
		<circle class="st2" cx="248.2" cy="167.4" r="6.2"/>
		<rect x="221.2" y="181.8" class="st3" width="51.6" height="15.7"/>
		<path class="st4" d="M283.9,211.6h-73.8c-3.5,0-5.2-3.2-2.6-5l13.5-9h52.8l12.9,8.8C289.3,208.2,287.6,211.6,283.9,211.6z"/>
		<rect x="135.9" y="19.8" class="st5" width="222.4" height="128.2"/>
		<path class="st6" d="M133.6,8.5c-6,0-10.9,4.9-10.9,10.9V171c0,6,4.9,10.9,10.9,10.9h114.6V8.5H133.6z"/>
		<rect x="135.9" y="19.8" class="st7" width="112.3" height="128.2"/>
		<rect x="221.2" y="181.8" class="st4" width="26.9" height="15.7"/>
		<path class="st1" d="M248.1,197.5h-27.2l-13.5,9c-2.7,1.8-1,5,2.6,5H248v-14H248.1z"/>
		<path class="st8" d="M248.2,161.3c-3.4,0-6.2,2.8-6.2,6.2s2.8,6.2,6.2,6.2V161.3z"/>
		<rect x="158.8" y="38.4" class="st8" width="179.6" height="98.4"/>
		<g>
			<rect x="158.8" y="34.7" class="st9" width="179.6" height="10.6"/>
			<g>
				<circle class="st10" cx="168" cy="40" r="2"/>
				<ellipse class="st11" cx="177.3" cy="40" rx="2" ry="2"/>
				<circle class="st12" cx="186.5" cy="40" r="2"/>
			</g>
		</g>
		<rect x="248.6" y="38.4" class="st13" width="89.8" height="98.4"/>
		<g>
			<rect x="248.1" y="34.7" class="st14" width="90.1" height="10.6"/>
		</g>
	</g>
	<g>
		<g>
			<path class="st0" d="M411.4,61.6c0.9-4.9,3.2-6.8,3.2-6.8c1.9-1.3,6.1-1.2,6.4-1.2s62.9,0.2,62.9,0.2s5-0.4,6.1,1.5
				c0.2,0.4,2.8,5.1,2.8,5.1L411.4,61.6z"/>
			<path class="st6" d="M487.2,212.9h-69.9c-3.3,0-5.9-2.7-5.9-5.9V62.3c0-3.3,2.7-5.9,5.9-5.9h69.9c3.3,0,5.9,2.7,5.9,5.9v144.6
				C493.2,210.2,490.5,212.9,487.2,212.9z"/>
			<circle class="st8" cx="452.3" cy="196.8" r="6.9"/>
			<rect x="420.1" y="67" class="st7" width="64.5" height="113.7"/>
		</g>
		<g>
			<path class="st1" d="M487.2,56.5h-35.1v156.4h35.1c3.3,0,5.9-2.7,5.9-5.9V62.3C493.2,59.1,490.5,56.5,487.2,56.5z"/>
			<rect x="452.2" y="67" class="st5" width="32.3" height="113.7"/>
			<path class="st2" d="M452.3,189.9C452.2,189.9,452.2,189.9,452.3,189.9l-0.1,13.8h0.1c3.8,0,6.9-3.1,6.9-6.9
				S456.1,189.9,452.3,189.9z"/>
		</g>
		<g>
			<path class="st15" d="M455.2,101.4c2.4-3.3,5.9-3.3,5.9-3.3s0.5,3.1-1.9,6c-2.7,3.2-5.6,2.7-5.6,2.7S453,104.2,455.2,101.4z"/>
			<path class="st8" d="M453.9,108.8c1.3,0,3.6-1.7,6.7-1.7c5.3,0,7.3,3.7,7.3,3.7s-4,2.1-4,7.1c0,5.6,5.1,7.7,5.1,7.7
				s-3.5,10-8.3,10c-2.2,0-3.9-1.5-6.2-1.5c-2.3,0-4.7,1.5-6.2,1.5c-4.4,0-9.9-9.5-9.9-17c0-7.4,4.7-11.4,9-11.4
				C450.2,107.2,452.4,108.8,453.9,108.8z"/>
		</g>
		<path class="st15" d="M463.9,118c0-5,4-7.1,4-7.1s-2.1-3.7-7.3-3.7c-3.1,0-5.4,1.7-6.7,1.7c-0.4,0-1.1-0.2-1.7-0.4v26.1
			c0.7-0.2,1.5-0.4,2.2-0.4c2.3,0,4,1.5,6.2,1.5c4.8,0,8.3-10,8.3-10S463.9,123.6,463.9,118z"/>
	</g>
	<g>
		<rect x="12.5" y="574.8" class="st16" width="94.2" height="12.1"/>
		<path class="st5" d="M115.4,380.3l-10.2-18c-0.4-2.1-2.2-3.7-4.5-3.7H17.8c-1.8,0-3.4,1.1-4.1,2.7l0,0L2.6,380.6
			c0,0-1.2,2.1-1.2,3.4v186.7c0,2.9,2.3,5.1,5.1,5.1h105.3c2.9,0,5.1-2.3,5.1-5.1V384.2C117.1,382.7,116.4,381.3,115.4,380.3z"/>
		<path class="st17" d="M115.4,380.1l-10.2-18c-0.4-2.1-2.2-3.7-4.5-3.7H59.2v217.2H112c2.9,0,5.1-2.3,5.1-5.1V383.8
			C117.1,382.3,116.4,381.1,115.4,380.1z"/>
		<g>
			<rect x="29.8" y="405.2" class="st18" width="29.4" height="9.5"/>
			<rect x="29.8" y="427.1" class="st18" width="29.4" height="9.5"/>
			<rect x="29.8" y="449.1" class="st18" width="29.4" height="9.5"/>
			<rect x="29.8" y="471" class="st18" width="29.4" height="9.5"/>
		</g>
		<path class="st7" d="M2.6,380.8l11.1-19.7l0,0c0.7-1.6,2.3-2.7,4.1-2.7h83.1c2.2,0,4,1.6,4.5,3.7l10,18.5L2.6,380.8z"/>
		<rect x="1.5" y="403.2" class="st19" width="36" height="13.1"/>
		<rect x="1.5" y="425.1" class="st19" width="36" height="13.1"/>
		<rect x="1.5" y="447" class="st19" width="36" height="13.1"/>
		<rect x="1.5" y="468.9" class="st19" width="36" height="13.1"/>
		<g>
			<path class="st18" d="M1.7,555v18.2c0,2.9,2.3,5.1,5.1,5.1h105.3c2.9,0,5.1-2.3,5.1-5.1V555H1.7z"/>
			<path class="st5" d="M59.5,555v23h52.8c2.9,0,5.1-2.3,5.1-5.1V555H59.5z"/>
		</g>
		<g>
			<rect x="59.2" y="405.2" class="st5" width="58" height="9.5"/>
			<rect x="59.2" y="427.1" class="st5" width="58" height="9.5"/>
			<rect x="59.2" y="449.1" class="st5" width="58" height="9.5"/>
			<rect x="59.2" y="471" class="st5" width="58" height="9.5"/>
		</g>
		<path class="st20" d="M114.2,589.5H4.1c-1.7,0-3.1-1.4-3.1-3.1l0,0c0-1.7,1.4-3.1,3.1-3.1h110.1c1.7,0,3.1,1.4,3.1,3.1l0,0
			C117.3,588.1,115.9,589.5,114.2,589.5z"/>
	</g>
	<g>
		<rect x="214.2" y="574.8" class="st16" width="94.2" height="12.1"/>
		<path class="st5" d="M317.1,380.3l-10.2-18c-0.4-2.1-2.2-3.7-4.5-3.7h-82.9c-1.8,0-3.4,1.1-4.1,2.7l0,0l-11.1,19.4
			c0,0-1.2,2.1-1.2,3.4v186.7c0,2.9,2.3,5.1,5.1,5.1h105.3c2.9,0,5.1-2.3,5.1-5.1V384.2C318.8,382.7,318,381.3,317.1,380.3z"/>
		<path class="st17" d="M317.1,380.1l-10.2-18c-0.4-2.1-2.2-3.7-4.5-3.7h-41.5v217.2h52.8c2.9,0,5.1-2.3,5.1-5.1V383.8
			C318.8,382.3,318.1,381.1,317.1,380.1z"/>
		<g>
			<rect x="231.5" y="405.2" class="st18" width="29.4" height="9.5"/>
			<rect x="231.5" y="427.1" class="st18" width="29.4" height="9.5"/>
			<rect x="231.5" y="449.1" class="st18" width="29.4" height="9.5"/>
			<rect x="231.5" y="471" class="st18" width="29.4" height="9.5"/>
		</g>
		<path class="st7" d="M204.3,380.8l11.1-19.6l0,0c0.7-1.6,2.3-2.7,4.1-2.7h83.1c2.2,0,4,1.6,4.5,3.7l10,18.5H204.3z"/>
		<rect x="203.2" y="403.2" class="st19" width="36" height="13.1"/>
		<rect x="203.2" y="425.1" class="st19" width="36" height="13.1"/>
		<rect x="203.2" y="447" class="st19" width="36" height="13.1"/>
		<rect x="203.2" y="468.9" class="st19" width="36" height="13.1"/>
		<g>
			<path class="st18" d="M203.4,555v18.2c0,2.9,2.3,5.1,5.1,5.1h105.3c2.9,0,5.1-2.3,5.1-5.1V555H203.4z"/>
			<path class="st5" d="M261.1,555v23h52.8c2.9,0,5.1-2.3,5.1-5.1V555H261.1z"/>
		</g>
		<g>
			<rect x="260.9" y="405.2" class="st5" width="58" height="9.5"/>
			<rect x="260.9" y="427.1" class="st5" width="58" height="9.5"/>
			<rect x="260.9" y="449.1" class="st5" width="58" height="9.5"/>
			<rect x="260.9" y="471" class="st5" width="58" height="9.5"/>
		</g>
		<path class="st20" d="M315.9,589.5H205.8c-1.7,0-3.1-1.4-3.1-3.1l0,0c0-1.7,1.4-3.1,3.1-3.1h110.1c1.7,0,3.1,1.4,3.1,3.1l0,0
			C319,588.1,317.6,589.5,315.9,589.5z"/>
	</g>
	<g>
		<rect x="421.3" y="574.8" class="st16" width="94.2" height="12.1"/>
		<path class="st5" d="M524.2,380.3l-10.2-18c-0.4-2.1-2.2-3.7-4.5-3.7h-82.9c-1.8,0-3.4,1.1-4.1,2.7l0,0l-11.1,19.4
			c0,0-1.2,2.1-1.2,3.4v186.7c0,2.9,2.3,5.1,5.1,5.1h105.3c2.9,0,5.1-2.3,5.1-5.1V384.2C525.9,382.7,525.3,381.3,524.2,380.3z"/>
		<path class="st17" d="M524.2,380.1l-10.2-18c-0.4-2.1-2.2-3.7-4.5-3.7H468v217.2h52.8c2.9,0,5.1-2.3,5.1-5.1V383.8
			C525.9,382.3,525.3,381.1,524.2,380.1z"/>
		<g>
			<rect x="438.7" y="405.2" class="st18" width="29.4" height="9.5"/>
			<rect x="438.7" y="427.1" class="st18" width="29.4" height="9.5"/>
			<rect x="438.7" y="449.1" class="st18" width="29.4" height="9.5"/>
			<rect x="438.7" y="471" class="st18" width="29.4" height="9.5"/>
		</g>
		<path class="st7" d="M411.4,380.8l11.1-19.6l0,0c0.7-1.6,2.3-2.7,4.1-2.7h83.1c2.2,0,4,1.6,4.5,3.7l10,18.5H411.4z"/>
		<rect x="410.4" y="403.2" class="st19" width="36" height="13.1"/>
		<rect x="410.4" y="425.1" class="st19" width="36" height="13.1"/>
		<rect x="410.4" y="447" class="st19" width="36" height="13.1"/>
		<rect x="410.4" y="468.9" class="st19" width="36" height="13.1"/>
		<g>
			<path class="st18" d="M410.5,555v18.2c0,2.9,2.3,5.1,5.1,5.1h105.3c2.9,0,5.1-2.3,5.1-5.1V555H410.5z"/>
			<path class="st5" d="M468.3,555v23H521c2.9,0,5.1-2.3,5.1-5.1V555H468.3z"/>
		</g>
		<g>
			<rect x="468" y="405.2" class="st5" width="58" height="9.5"/>
			<rect x="468" y="427.1" class="st5" width="58" height="9.5"/>
			<rect x="468" y="449.1" class="st5" width="58" height="9.5"/>
			<rect x="468" y="471" class="st5" width="58" height="9.5"/>
		</g>
		<path class="st20" d="M523,589.5H412.9c-1.7,0-3.1-1.4-3.1-3.1l0,0c0-1.7,1.4-3.1,3.1-3.1H523c1.7,0,3.1,1.4,3.1,3.1l0,0
			C526.1,588.1,524.8,589.5,523,589.5z"/>
	</g>
	<g>
		<rect x="623.1" y="574.8" class="st16" width="94.2" height="12.1"/>
		<path class="st5" d="M725.9,380.3l-10.2-18c-0.4-2.1-2.2-3.7-4.5-3.7h-82.9c-1.8,0-3.4,1.1-4.1,2.7l0,0l-11.1,19.4
			c0,0-1.2,2.1-1.2,3.4v186.7c0,2.9,2.3,5.1,5.1,5.1h105.3c2.9,0,5.1-2.3,5.1-5.1V384.2C727.6,382.7,726.9,381.3,725.9,380.3z"/>
		<path class="st17" d="M725.9,380.1l-10.2-18c-0.4-2.1-2.2-3.7-4.5-3.7h-41.5v217.2h52.8c2.9,0,5.1-2.3,5.1-5.1V383.8
			C727.6,382.3,727,381.1,725.9,380.1z"/>
		<g>
			<rect x="640.4" y="405.2" class="st18" width="29.4" height="9.5"/>
			<rect x="640.4" y="427.1" class="st18" width="29.4" height="9.5"/>
			<rect x="640.4" y="449.1" class="st18" width="29.4" height="9.5"/>
			<rect x="640.4" y="471" class="st18" width="29.4" height="9.5"/>
		</g>
		<path class="st7" d="M613.2,380.8l11.1-19.6l0,0c0.7-1.6,2.3-2.7,4.1-2.7h83.1c2.2,0,4,1.6,4.5,3.7l10,18.5H613.2z"/>
		<rect x="612" y="403.2" class="st19" width="36" height="13.1"/>
		<rect x="612" y="425.1" class="st19" width="36" height="13.1"/>
		<rect x="612" y="447" class="st19" width="36" height="13.1"/>
		<rect x="612" y="468.9" class="st19" width="36" height="13.1"/>
		<g>
			<path class="st18" d="M612.2,555v18.2c0,2.9,2.3,5.1,5.1,5.1h105.3c2.9,0,5.1-2.3,5.1-5.1V555H612.2z"/>
			<path class="st5" d="M670,555v23h52.8c2.9,0,5.1-2.3,5.1-5.1V555H670z"/>
		</g>
		<g>
			<rect x="669.8" y="405.2" class="st5" width="58" height="9.5"/>
			<rect x="669.8" y="427.1" class="st5" width="58" height="9.5"/>
			<rect x="669.8" y="449.1" class="st5" width="58" height="9.5"/>
			<rect x="669.8" y="471" class="st5" width="58" height="9.5"/>
		</g>
		<path class="st20" d="M724.8,589.5H614.6c-1.7,0-3.1-1.4-3.1-3.1l0,0c0-1.7,1.4-3.1,3.1-3.1h110.1c1.7,0,3.1,1.4,3.1,3.1l0,0
			C727.8,588.1,726.5,589.5,724.8,589.5z"/>
	</g>
	<g>
		<rect x="817.1" y="574.8" class="st16" width="94.2" height="12.1"/>
		<path class="st5" d="M920,380.3l-10.2-18c-0.4-2.1-2.2-3.7-4.5-3.7h-82.9c-1.8,0-3.4,1.1-4.1,2.7l0,0l-11.1,19.4
			c0,0-1.2,2.1-1.2,3.4v186.7c0,2.9,2.3,5.1,5.1,5.1h105.3c2.9,0,5.1-2.3,5.1-5.1V384.2C921.7,382.7,921,381.3,920,380.3z"/>
		<path class="st17" d="M920,380.1l-10.2-18c-0.4-2.1-2.2-3.7-4.5-3.7h-41.5v217.2h52.8c2.9,0,5.1-2.3,5.1-5.1V383.8
			C921.7,382.3,921,381.1,920,380.1z"/>
		<g>
			<rect x="834.4" y="405.2" class="st18" width="29.4" height="9.5"/>
			<rect x="834.4" y="427.1" class="st18" width="29.4" height="9.5"/>
			<rect x="834.4" y="449.1" class="st18" width="29.4" height="9.5"/>
			<rect x="834.4" y="471" class="st18" width="29.4" height="9.5"/>
		</g>
		<path class="st7" d="M807.2,380.8l11.1-19.6l0,0c0.7-1.6,2.3-2.7,4.1-2.7h83.1c2.2,0,4,1.6,4.5,3.7l10,18.5H807.2z"/>
		<rect x="806.1" y="403.2" class="st19" width="36" height="13.1"/>
		<rect x="806.1" y="425.1" class="st19" width="36" height="13.1"/>
		<rect x="806.1" y="447" class="st19" width="36" height="13.1"/>
		<rect x="806.1" y="468.9" class="st19" width="36" height="13.1"/>
		<g>
			<path class="st18" d="M806.4,555v18.2c0,2.9,2.3,5.1,5.1,5.1h105.3c2.9,0,5.1-2.3,5.1-5.1V555H806.4z"/>
			<path class="st5" d="M864.1,555v23h52.8c2.9,0,5.1-2.3,5.1-5.1V555H864.1z"/>
		</g>
		<g>
			<rect x="863.8" y="405.2" class="st5" width="58" height="9.5"/>
			<rect x="863.8" y="427.1" class="st5" width="58" height="9.5"/>
			<rect x="863.8" y="449.1" class="st5" width="58" height="9.5"/>
			<rect x="863.8" y="471" class="st5" width="58" height="9.5"/>
		</g>
		<path class="st20" d="M918.9,589.5H808.7c-1.7,0-3.1-1.4-3.1-3.1l0,0c0-1.7,1.4-3.1,3.1-3.1h110.1c1.7,0,3.1,1.4,3.1,3.1l0,0
			C922,588.1,920.5,589.5,918.9,589.5z"/>
	</g>
	<g>
		<line class="st21" x1="356.2" y1="215.1" x2="60" y2="353.1"/>
		<line class="st21" x1="369.3" y1="216.1" x2="261.9" y2="353.1"/>
		<line class="st21" x1="379.8" y1="215.1" x2="466.6" y2="353.9"/>
		<line class="st21" x1="387.9" y1="215.1" x2="666.4" y2="354"/>
		<line class="st21" x1="399.2" y1="215.1" x2="860.9" y2="353.9"/>
	</g>
	<g>
		<g>
			
				<linearGradient id="SVGID_1_" gradientUnits="userSpaceOnUse" x1="-1445.7584" y1="2651.4851" x2="-1429.8186" y2="2741.8843" gradientTransform="matrix(-1 0 0 1 -1054.9351 -2530.7959)">
				<stop  offset="0" style="stop-color:#FAAE42"/>
				<stop  offset="1" style="stop-color:#EF3E31"/>
			</linearGradient>
			<path class="st22" d="M359.3,123.7h47c10.3,0,18.7,8.4,18.7,18.7v47c0,10.3-8.4,18.7-18.7,18.7h-47c-10.3,0-18.7-8.4-18.7-18.7
				v-47C340.7,132.1,349,123.7,359.3,123.7z"/>
			
				<linearGradient id="SVGID_2_" gradientUnits="userSpaceOnUse" x1="383.6906" y1="530.9227" x2="372.0257" y2="464.7672" gradientTransform="matrix(1 0 0 -1 0 656)">
				<stop  offset="0" style="stop-color:#E39F3A"/>
				<stop  offset="1" style="stop-color:#D33929"/>
			</linearGradient>
			<path class="st23" d="M411.9,192.8c0,0-3.3-5.4-8.7-5.4c-5.3,0-8.4,5.4-19,5.4c-23.6,0-34.8-19.6-34.9-19.8l0,0l-8.6-9.4v-21.3
				c0-10.3,8.4-18.7,18.7-18.7H376l12.3,12.6l0,0c27.9,18.9,18.8,39.8,18.8,39.8S415.1,184.9,411.9,192.8z"/>
			<path class="st8" d="M388.4,136.3c27.9,18.9,18.8,39.8,18.8,39.8s7.9,8.9,4.7,16.7c0,0-3.3-5.4-8.7-5.4c-5.3,0-8.4,5.4-19,5.4
				c-23.6,0-34.9-19.8-34.9-19.8c21.3,14,35.9,4,35.9,4c-9.6-5.5-30-32.2-30-32.2c17.8,15.1,25.4,19.1,25.4,19.1
				c-4.6-3.8-17.4-22.3-17.4-22.3c10.3,10.4,30.7,24.9,30.7,24.9C399.7,150.6,388.4,136.3,388.4,136.3z"/>
		</g>
	</g>
	<g>
		<path class="st20" d="M532.7,609.3h-39c-8.6,0-15.5-7-15.5-15.5v-39c0-8.6,7-15.5,15.5-15.5h39c8.6,0,15.5,7,15.5,15.5v39
			C548.1,602.3,541.2,609.3,532.7,609.3z"/>
		<path class="st18" d="M532.7,607.1h-39c-8.6,0-15.5-7-15.5-15.5v-39c0-8.6,7-15.5,15.5-15.5h39c8.6,0,15.5,7,15.5,15.5v39
			C548.1,600.2,541.2,607.1,532.7,607.1z"/>
		
			<linearGradient id="SVGID_3_" gradientUnits="userSpaceOnUse" x1="-2047.8037" y1="2307.2021" x2="-2034.5741" y2="2382.2312" gradientTransform="matrix(1 0 0 -1 2554.335 2915.7959)">
			<stop  offset="0" style="stop-color:#FAAE42"/>
			<stop  offset="1" style="stop-color:#EF3E31"/>
		</linearGradient>
		<path class="st24" d="M532.7,606.1h-39c-8.6,0-15.5-7-15.5-15.5v-39c0-8.6,7-15.5,15.5-15.5h39c8.6,0,15.5,7,15.5,15.5v39
			C548.1,599.1,541.2,606.1,532.7,606.1z"/>
		
			<linearGradient id="XMLID_46_" gradientUnits="userSpaceOnUse" x1="516.9281" y1="75.0245" x2="483.6829" y2="52.9199" gradientTransform="matrix(1 0 0 -1 0 656)">
			<stop  offset="0" style="stop-color:#D23829"/>
			<stop  offset="0.25" style="stop-color:#D54D2D;stop-opacity:0.75"/>
			<stop  offset="0.764" style="stop-color:#DD8336;stop-opacity:0.236"/>
			<stop  offset="1" style="stop-color:#E19E3A;stop-opacity:0"/>
		</linearGradient>
		<path id="XMLID_119_" class="st25" d="M520.7,593.6l-0.2,0.2l-13.6,11.9c0,0-30.1,1.2-31-9.1c-0.9-10.3,11.6-12.5,12-12.6
			s30.7,0.5,30.7,0.5L520.7,593.6z"/>
		<g id="XMLID_104_">
			<path id="XMLID_115_" class="st8" d="M532.2,573.1l-0.2-1.7l1.1,0.2l1.6-1l-2.3-0.1l-2.6,1l-7.9,7.2l-0.4,0.1l-2.4-3.1l-0.7-0.8
				l0.1-0.1l19.4-31.9l-28.2,20.5l-1.9,9.4l-4.1,2l-0.5,0.3l-4.9-0.2l-2-0.1L481,587.1l34.4,1.3l1.7-0.1l3.6-2.6l-7.5-3.3l-0.2-12.2
				l7.7,15.6l-0.1,7.9l10.1-19.8l12.1,5.4L532.2,573.1z"/>
			<path id="XMLID_114_" class="st26" d="M480.9,587.1L480.9,587.1L480.9,587.1z"/>
			<path id="XMLID_111_" class="st16" d="M521.6,578.7l0.4-0.1l7.9-7.2l2.6-1l5.5-27.5l-19.4,31.9l-0.1,0.1L521.6,578.7z
				 M518.8,575.1l0.2,0.3"/>
			<path id="XMLID_109_" class="st16" d="M503.3,575.1l0.5-0.3l-21.7-23.5l16.3,23.7l4.6,0.2H503.3z"/>
			<polygon id="XMLID_108_" class="st16" points="513.3,582.4 520.8,585.7 513.2,570.2 			"/>
			<path id="XMLID_106_" class="st16" d="M533.3,571.5l-0.2,0.1l-1.1-0.2l0,0.2l0.2,1.5l10.7,6.1l-8.1-8.7l-1.3,0.8L533.3,571.5z"/>
			<polygon id="XMLID_105_" class="st16" points="517.2,588.3 515.4,588.4 520.7,593.6 520.8,585.7 			"/>
		</g>
	</g>
	<g>
		<path class="st20" d="M332.1,609.3h-39c-8.6,0-15.5-7-15.5-15.5v-39c0-8.6,7-15.5,15.5-15.5h39c8.6,0,15.5,7,15.5,15.5v39
			C347.6,602.3,340.7,609.3,332.1,609.3z"/>
		<path class="st18" d="M332.1,607.1h-39c-8.6,0-15.5-7-15.5-15.5v-39c0-8.6,7-15.5,15.5-15.5h39c8.6,0,15.5,7,15.5,15.5v39
			C347.6,600.2,340.7,607.1,332.1,607.1z"/>
		
			<linearGradient id="SVGID_4_" gradientUnits="userSpaceOnUse" x1="-2248.3464" y1="2307.2021" x2="-2235.1167" y2="2382.2312" gradientTransform="matrix(1 0 0 -1 2554.335 2915.7959)">
			<stop  offset="0" style="stop-color:#FAAE42"/>
			<stop  offset="1" style="stop-color:#EF3E31"/>
		</linearGradient>
		<path class="st27" d="M332.1,606.1h-39c-8.6,0-15.5-7-15.5-15.5v-39c0-8.6,7-15.5,15.5-15.5h39c8.6,0,15.5,7,15.5,15.5v39
			C347.6,599.1,340.7,606.1,332.1,606.1z"/>
		
			<linearGradient id="XMLID_47_" gradientUnits="userSpaceOnUse" x1="316.3855" y1="75.0245" x2="283.1403" y2="52.9199" gradientTransform="matrix(1 0 0 -1 0 656)">
			<stop  offset="0" style="stop-color:#D23829"/>
			<stop  offset="0.25" style="stop-color:#D54D2D;stop-opacity:0.75"/>
			<stop  offset="0.764" style="stop-color:#DD8336;stop-opacity:0.236"/>
			<stop  offset="1" style="stop-color:#E19E3A;stop-opacity:0"/>
		</linearGradient>
		<path id="XMLID_35_" class="st28" d="M320.2,593.6l-0.2,0.2l-13.6,11.9c0,0-30.1,1.2-31-9.1c-0.9-10.3,11.6-12.5,12-12.6
			s30.7,0.5,30.7,0.5L320.2,593.6z"/>
		<g id="XMLID_27_">
			<path id="XMLID_34_" class="st8" d="M331.7,573.1l-0.2-1.7l1.1,0.2l1.6-1l-2.3-0.1l-2.6,1l-7.9,7.2l-0.4,0.1l-2.4-3.1l-0.7-0.8
				l0.1-0.1l19.4-31.9l-28.2,20.5l-1.9,9.4l-4.1,2l-0.5,0.3l-4.9-0.2l-2-0.1l-15.4,12.2l34.4,1.3l1.7-0.1l3.6-2.6l-7.5-3.3
				l-0.2-12.2l7.7,15.6l-0.1,7.9l10.1-19.8l12.1,5.4L331.7,573.1z"/>
			<path id="XMLID_33_" class="st26" d="M280.4,587.1L280.4,587.1L280.4,587.1z"/>
			<path id="XMLID_32_" class="st16" d="M321.1,578.7l0.4-0.1l7.9-7.2l2.6-1l5.5-27.5l-19.4,31.9l-0.1,0.1L321.1,578.7z
				 M318.2,575.1l0.2,0.3"/>
			<path id="XMLID_31_" class="st16" d="M302.8,575.1l0.5-0.3l-21.7-23.5l16.3,23.7l4.6,0.2H302.8z"/>
			<polygon id="XMLID_30_" class="st16" points="312.8,582.4 320.3,585.7 312.6,570.2 			"/>
			<path id="XMLID_29_" class="st16" d="M332.7,571.5l-0.2,0.1l-1.1-0.2l0,0.2l0.2,1.5l10.7,6.1l-8.1-8.7l-1.3,0.8L332.7,571.5z"/>
			<polygon id="XMLID_28_" class="st16" points="316.6,588.3 314.9,588.4 320.2,593.6 320.3,585.7 			"/>
		</g>
	</g>
	<g>
		<path class="st20" d="M159.2,605h-36.3c-8,0-14.5-6.5-14.5-14.5v-36.3c0-8,6.5-14.5,14.5-14.5h36.3c8,0,14.5,6.5,14.5,14.5v36.3
			C173.6,598.5,167.2,605,159.2,605z"/>
		<path class="st18" d="M159.2,603h-36.3c-8,0-14.5-6.5-14.5-14.5v-36.3c0-8,6.5-14.5,14.5-14.5h36.3c8,0,14.5,6.5,14.5,14.5v36.3
			C173.6,596.5,167.2,603,159.2,603z"/>
		
			<linearGradient id="SVGID_5_" gradientUnits="userSpaceOnUse" x1="-2419.439" y1="2311.4343" x2="-2407.1304" y2="2381.2393" gradientTransform="matrix(1 0 0 -1 2554.335 2915.7959)">
			<stop  offset="0" style="stop-color:#FAAE42"/>
			<stop  offset="1" style="stop-color:#EF3E31"/>
		</linearGradient>
		<path class="st29" d="M159.2,602h-36.3c-8,0-14.5-6.5-14.5-14.5v-36.3c0-8,6.5-14.5,14.5-14.5h36.3c8,0,14.5,6.5,14.5,14.5v36.3
			C173.6,595.5,167.2,602,159.2,602z"/>
		
			<linearGradient id="XMLID_48_" gradientUnits="userSpaceOnUse" x1="144.569" y1="77.3336" x2="113.6385" y2="56.7681" gradientTransform="matrix(1 0 0 -1 0 656)">
			<stop  offset="0" style="stop-color:#D23829"/>
			<stop  offset="0.25" style="stop-color:#D54D2D;stop-opacity:0.75"/>
			<stop  offset="0.764" style="stop-color:#DD8336;stop-opacity:0.236"/>
			<stop  offset="1" style="stop-color:#E19E3A;stop-opacity:0"/>
		</linearGradient>
		<path id="XMLID_44_" class="st30" d="M148.1,590.4l-0.2,0.2l-12.7,11.1c0,0-28,1.1-28.8-8.5s10.8-11.6,11.1-11.8
			s28.6,0.5,28.6,0.5L148.1,590.4z"/>
		<g id="XMLID_36_">
			<path id="XMLID_43_" class="st8" d="M158.8,571.4l-0.2-1.6l1,0.2l1.5-1l-2.2-0.1l-2.4,0.9l-7.3,6.7l-0.3,0.1l-2.2-2.9l-0.6-0.8
				l0.1,0l18.1-29.7L138,562.3l-1.8,8.7l-3.8,1.9l-0.5,0.3l-4.6-0.2l-1.9-0.1l-14.3,11.4l32,1.2l1.6-0.1l3.4-2.4l-7-3.1l-0.2-11.4
				l7.1,14.5l-0.1,7.4l9.4-18.4l11.2,5L158.8,571.4z"/>
			<path id="XMLID_42_" class="st26" d="M111.1,584.4L111.1,584.4L111.1,584.4z"/>
			<path id="XMLID_41_" class="st16" d="M148.9,576.6l0.3-0.1l7.3-6.7l2.4-0.9l5.2-25.6l-18,29.7l-0.1,0.1L148.9,576.6z
				 M146.3,573.2l0.2,0.3"/>
			<path id="XMLID_40_" class="st16" d="M131.9,573.2l0.5-0.3L112.2,551l15.1,22.1l4.3,0.1H131.9z"/>
			<polygon id="XMLID_39_" class="st16" points="141.2,580 148.2,583.1 141.1,568.6 			"/>
			<path id="XMLID_38_" class="st16" d="M159.8,569.8l-0.1,0.1l-1-0.2l0,0.2l0.1,1.4l9.9,5.7l-7.5-8.1l-1.2,0.8L159.8,569.8z"/>
			<polygon id="XMLID_37_" class="st16" points="144.8,585.5 143.2,585.6 148.1,590.4 148.2,583.1 			"/>
		</g>
	</g>
	<polygon id="XMLID_103_" class="st8" points="482.1,551.2 506.6,573.4 503.9,574.8 	"/>
	<polygon id="XMLID_102_" class="st16" points="524.4,584.2 497.8,572.5 498.1,572.2 524.6,584 	"/>
	<polygon id="XMLID_101_" class="st16" points="481.4,585.5 481.8,585.3 515.4,579.8 515.4,580.1 	"/>
	<polygon id="XMLID_100_" class="st16" points="521.8,578.5 521.7,578.3 525.2,576.3 512.7,559.8 512.9,559.6 525.7,576.4 	"/>
	<path class="st20" d="M734.8,609.3h-39c-8.6,0-15.5-7-15.5-15.5v-39c0-8.6,7-15.5,15.5-15.5h39c8.6,0,15.5,7,15.5,15.5v39
		C750.3,602.3,743.4,609.3,734.8,609.3z"/>
	<path class="st18" d="M734.8,607.1h-39c-8.6,0-15.5-7-15.5-15.5v-39c0-8.6,7-15.5,15.5-15.5h39c8.6,0,15.5,7,15.5,15.5v39
		C750.3,600.2,743.4,607.1,734.8,607.1z"/>
	
		<linearGradient id="SVGID_6_" gradientUnits="userSpaceOnUse" x1="-1845.6653" y1="2307.2021" x2="-1832.4357" y2="2382.2312" gradientTransform="matrix(1 0 0 -1 2554.335 2915.7959)">
		<stop  offset="0" style="stop-color:#FAAE42"/>
		<stop  offset="1" style="stop-color:#EF3E31"/>
	</linearGradient>
	<path class="st31" d="M734.8,606.1h-39c-8.6,0-15.5-7-15.5-15.5v-39c0-8.6,7-15.5,15.5-15.5h39c8.6,0,15.5,7,15.5,15.5v39
		C750.3,599.1,743.4,606.1,734.8,606.1z"/>
	
		<linearGradient id="XMLID_49_" gradientUnits="userSpaceOnUse" x1="719.0665" y1="75.0245" x2="685.8214" y2="52.9199" gradientTransform="matrix(1 0 0 -1 0 656)">
		<stop  offset="0" style="stop-color:#D23829"/>
		<stop  offset="0.25" style="stop-color:#D54D2D;stop-opacity:0.75"/>
		<stop  offset="0.764" style="stop-color:#DD8336;stop-opacity:0.236"/>
		<stop  offset="1" style="stop-color:#E19E3A;stop-opacity:0"/>
	</linearGradient>
	<path id="XMLID_13_" class="st32" d="M722.8,593.6l-0.2,0.2L709,605.8c0,0-30.1,1.2-31-9.1c-0.9-10.3,11.6-12.5,12-12.6
		s30.7,0.5,30.7,0.5L722.8,593.6z"/>
	<g id="XMLID_5_">
		<path id="XMLID_12_" class="st8" d="M734.3,573.1l-0.2-1.7l1.1,0.2l1.6-1l-2.3-0.1l-2.6,1l-7.9,7.2l-0.4,0.1l-2.4-3.1l-0.7-0.8
			l0.1-0.1l19.4-31.9L712,563.4l-1.9,9.4l-4.1,2l-0.5,0.3l-4.9-0.2l-2-0.1l-15.4,12.2l34.4,1.3l1.7-0.1l3.6-2.6l-7.5-3.3l-0.2-12.2
			l7.7,15.6l-0.1,7.9l10.1-19.8l12.1,5.4L734.3,573.1z"/>
		<path id="XMLID_11_" class="st26" d="M683,587.1L683,587.1L683,587.1z"/>
		<path id="XMLID_10_" class="st16" d="M723.8,578.7l0.4-0.1l7.9-7.2l2.6-1l5.5-27.5l-19.4,31.9l-0.1,0.1L723.8,578.7z M720.9,575.1
			l0.2,0.3"/>
		<path id="XMLID_9_" class="st16" d="M705.5,575.1l0.5-0.3l-21.7-23.5l16.3,23.7l4.6,0.2H705.5z"/>
		<polygon id="XMLID_8_" class="st16" points="715.5,582.4 723,585.7 715.3,570.2 		"/>
		<path id="XMLID_7_" class="st16" d="M735.4,571.5l-0.2,0.1l-1.1-0.2l0,0.2l0.2,1.5l10.7,6.1l-8.1-8.7l-1.3,0.8L735.4,571.5z"/>
		<polygon id="XMLID_6_" class="st16" points="719.3,588.3 717.6,588.4 722.8,593.6 723,585.7 		"/>
	</g>
	<polygon id="XMLID_4_" class="st8" points="684.3,551.2 708.8,573.4 706,574.8 	"/>
	<polygon id="XMLID_3_" class="st16" points="726.5,584.2 699.9,572.5 700.3,572.2 726.8,584 	"/>
	<polygon id="XMLID_2_" class="st16" points="683.6,585.5 683.9,585.3 717.5,579.8 717.5,580.1 	"/>
	<polygon id="XMLID_1_" class="st16" points="724,578.5 723.8,578.3 727.4,576.3 714.9,559.8 715.1,559.6 727.8,576.4 	"/>
	<path class="st20" d="M936.4,609.3h-39c-8.6,0-15.5-7-15.5-15.5v-39c0-8.6,7-15.5,15.5-15.5h39c8.6,0,15.5,7,15.5,15.5v39
		C951.9,602.3,945,609.3,936.4,609.3z"/>
	<path class="st18" d="M936.4,607.1h-39c-8.6,0-15.5-7-15.5-15.5v-39c0-8.6,7-15.5,15.5-15.5h39c8.6,0,15.5,7,15.5,15.5v39
		C951.9,600.2,945,607.1,936.4,607.1z"/>
	
		<linearGradient id="SVGID_7_" gradientUnits="userSpaceOnUse" x1="-1644.0588" y1="2307.2021" x2="-1630.8292" y2="2382.2312" gradientTransform="matrix(1 0 0 -1 2554.335 2915.7959)">
		<stop  offset="0" style="stop-color:#FAAE42"/>
		<stop  offset="1" style="stop-color:#EF3E31"/>
	</linearGradient>
	<path class="st33" d="M936.4,606.1h-39c-8.6,0-15.5-7-15.5-15.5v-39c0-8.6,7-15.5,15.5-15.5h39c8.6,0,15.5,7,15.5,15.5v39
		C951.9,599.1,945,606.1,936.4,606.1z"/>
	
		<linearGradient id="XMLID_50_" gradientUnits="userSpaceOnUse" x1="920.673" y1="75.0245" x2="887.4279" y2="52.9199" gradientTransform="matrix(1 0 0 -1 0 656)">
		<stop  offset="0" style="stop-color:#D23829"/>
		<stop  offset="0.25" style="stop-color:#D54D2D;stop-opacity:0.75"/>
		<stop  offset="0.764" style="stop-color:#DD8336;stop-opacity:0.236"/>
		<stop  offset="1" style="stop-color:#E19E3A;stop-opacity:0"/>
	</linearGradient>
	<path id="XMLID_26_" class="st34" d="M924.5,593.6l-0.2,0.2l-13.6,11.9c0,0-30.1,1.2-31-9.1c-0.9-10.3,11.6-12.5,12-12.6
		s30.7,0.5,30.7,0.5L924.5,593.6z"/>
	<g id="XMLID_18_">
		<path id="XMLID_25_" class="st8" d="M935.9,573.1l-0.2-1.7l1.1,0.2l1.6-1l-2.3-0.1l-2.6,1l-7.9,7.2l-0.4,0.1l-2.4-3.1l-0.7-0.8
			l0.1-0.1l19.4-31.9l-28.2,20.5l-1.9,9.4l-4.1,2l-0.5,0.3l-4.9-0.2l-2-0.1l-15.4,12.2l34.4,1.3l1.7-0.1l3.6-2.6l-7.5-3.3l-0.2-12.2
			l7.7,15.6l-0.1,7.9l10.1-19.8l12.1,5.4L935.9,573.1z"/>
		<path id="XMLID_24_" class="st26" d="M884.7,587.1L884.7,587.1L884.7,587.1z"/>
		<path id="XMLID_23_" class="st16" d="M925.4,578.7l0.4-0.1l7.9-7.2l2.6-1l5.5-27.5l-19.4,31.9l-0.1,0.1L925.4,578.7z M922.5,575.1
			l0.2,0.3"/>
		<path id="XMLID_22_" class="st16" d="M907.1,575.1l0.5-0.3l-21.7-23.5l16.3,23.7l4.6,0.2H907.1z"/>
		<polygon id="XMLID_21_" class="st16" points="917.1,582.4 924.6,585.7 916.9,570.2 		"/>
		<path id="XMLID_20_" class="st16" d="M937,571.5l-0.2,0.1l-1.1-0.2l0,0.2l0.2,1.5l10.7,6.1l-8.1-8.7l-1.3,0.8L937,571.5z"/>
		<polygon id="XMLID_19_" class="st16" points="920.9,588.3 919.2,588.4 924.5,593.6 924.6,585.7 		"/>
	</g>
	<polygon id="XMLID_17_" class="st8" points="885.9,551.2 910.4,573.4 907.6,574.8 	"/>
	<polygon id="XMLID_16_" class="st16" points="928.1,584.2 901.5,572.5 901.9,572.2 928.4,584 	"/>
	<polygon id="XMLID_15_" class="st16" points="885.2,585.5 885.5,585.3 919.1,579.8 919.2,580.1 	"/>
	<polygon id="XMLID_14_" class="st16" points="925.6,578.5 925.5,578.3 929,576.3 916.5,559.8 916.7,559.6 929.4,576.4 	"/>
	<polygon id="XMLID_99_" class="st16" points="629.3,571.7 629.1,571.7 630.3,568.9 630.6,569 	"/>
</g>
</svg>
