<?xml version="1.0" encoding="utf-8"?>
<!-- Generator: Adobe Illustrator 19.2.1, SVG Export Plug-In . SVG Version: 6.00 Build 0)  -->
<!DOCTYPE svg PUBLIC "-//W3C//DTD SVG 1.1//EN" "http://www.w3.org/Graphics/SVG/1.1/DTD/svg11.dtd">
<svg version="1.1" id="Layer_1" xmlns="http://www.w3.org/2000/svg" xmlns:xlink="http://www.w3.org/1999/xlink" x="0px" y="0px"
	 viewBox="0 0 130 104" style="enable-background:new 0 0 130 104;" xml:space="preserve">
<style type="text/css">
	.st0{fill:#323232;}
</style>
<g>
	<path class="st0" d="M57.9,95.8l-17.8-7.5l-0.4-0.9l2.4-7.2l-4.7-4.5L30.7,78l-0.9-0.4l-8.2-18.7l0.4-1l7-3.2l-0.7-6.4
		c-7.2-3-7.2-3.4-7.2-3.9c0-0.2,0-0.6,7.4-17.9l0.9-0.4l7.3,2.4l4.7-5.2l-1.9-6.6l0.5-0.9l17.5-6.8l0.9,0.3l4.1,6.5h5.2l3.5-6.9
		l1-0.3l18.6,7.9l0.4,1l-2.3,6.1l4.2,4.6l7.6-1.8l0.9,0.4l7.2,17.3l-0.3,0.9l-6.5,3.8l-0.6,5.3l7,4.5l0.3,0.9l-7.1,17.1l-1.2,0.3
		L84,61.6l-0.2-0.9c0.3-0.5,6.4-13-3.3-22.7c-7.8-7.8-16.5-7.5-19.7-7l10.8,10.5l0.2,0.7l-2.1,12.7l-0.5,0.6l-11.8,3.2l-0.7-0.2
		L44.8,47.1C44.1,51,43,62.8,54.6,70c13.7,8.6,20.3,1.9,20.6,1.6l1.1,0l14.6,15l-0.2,1.2l-17.8,7.5l-1-0.4l-3.1-6.5l-6.4-0.1l-3.4,7
		L57.9,95.8z M41.4,87.2l16.5,6.9l3.3-6.8l0.7-0.4l7.4,0.1l0.7,0.4l3,6.3L89,86.9L75.7,73.2c-2,1.6-9.2,6-21.9-1.9
		c-14.7-9.2-10.2-25.7-10.2-25.8l1.2-0.3l12.5,11.9l10.9-2.9l1.9-11.8L58.7,31.1l0.3-1.3c0.5-0.1,12.1-3.3,22.5,7.1
		c9.4,9.4,5,21.3,3.8,23.9l15.3,13.8l6.4-15.5l-6.8-4.4l-0.3-0.7l0.7-6.1l0.4-0.6l6.2-3.7l-6.7-16.2l-7.4,1.8l-0.7-0.2l-4.9-5.3
		l-0.1-0.8l2.2-5.8L72.3,9.9l-3.4,6.7L68.2,17h-6.1l-0.6-0.3l-4-6.3l-16.3,6.3l1.8,6.4l-0.2,0.7l-5.3,5.9l-0.8,0.2l-7.1-2.3
		c-2.6,6-6.1,14.4-6.9,16.4c1,0.6,3.9,1.9,6.6,3l0.5,0.6l0.8,7.4l-0.4,0.8L23.3,59l7.6,17.4l6.5-2.3l0.8,0.2l5.3,5.2l0.2,0.8
		L41.4,87.2z"/>
</g>
</svg>
