<svg version="1.1" id="Layer_1" xmlns="http://www.w3.org/2000/svg" xmlns:xlink="http://www.w3.org/1999/xlink" x="0px" y="0px"
	 viewBox="-139 51 512 512" style="enable-background:new -139 51 512 512;" xml:space="preserve">
<path d="M197.7,97.1c36.7,28.3,66.1,58.7,87.5,90.8c20.9,31.3,34.4,64.3,39.9,98c9.5,57.4-7.4,97.6-7.5,98l-1.5,3.5l2.5,2.9
	c0.2,0.2,15.3,17.4,27.3,41.7c6.9,14.1,11.4,27.7,13.3,40.6c1.7,11.5,1.4,22.3-1,32.4c-3.1-3.8-7.2-8.3-12.1-12.8
	c-16.6-15.1-35.4-23-54.5-23c-18.6,0-33.6,7.7-50.8,16.6C216.8,498,189.7,512,142,512c-41.6,0-81.6-8-118.8-23.7
	C-6.7,475.7-35,458.1-60.8,436c-22.7-19.4-39.6-39-50.6-53.5c52.4,30,104.6,45.2,155.6,45.2c67.4,0,107.4-26.8,109.1-27.9l7.9-5.4
	l-8.2-4.8C100.8,359.4,6,247.1-45.7,183.1c107.4,87.8,154.8,112.7,157,113.9l50.2,25.9L117.8,287C96,269,49,206.6,16.3,161.6
	c84,74.1,197.5,154.7,198.8,155.7l6.4,4.6l2.7-7.4c10.8-29.6,15.1-60.9,12.9-93.1c-1.8-25.7-7.7-51.9-17.5-78
	C212.6,124.9,204.7,109.2,197.7,97.1 M174.9,73.2c0,0,89.6,113,43.7,239.2c0,0-161-114.2-242.1-196.3c0,0,101.3,145.7,137.5,175.5
	c0,0-60.5-31.3-200.6-150.4c0,0,160.7,209.6,236.4,253.6c0,0-39.3,26.9-105.7,26.9c-46.8,0-107.1-13.4-176.5-59.1
	c0,0,88.1,155.4,274.3,155.4c83.8,0,108.2-43,149.7-43c43,0,68.8,43,68.8,43c25.1-61.6-37.2-131.8-37.2-131.8
	S394.1,222.2,174.9,73.2L174.9,73.2z"/>
</svg>
