<?xml version="1.0" encoding="utf-8"?>
<!-- Generator: Adobe Illustrator 19.2.1, SVG Export Plug-In . SVG Version: 6.00 Build 0)  -->
<svg version="1.1" id="Layer_1" xmlns="http://www.w3.org/2000/svg" xmlns:xlink="http://www.w3.org/1999/xlink" x="0px" y="0px"
	 viewBox="0 0 1300 1300" style="enable-background:new 0 0 1300 1300;" xml:space="preserve">
<style type="text/css">
	.st0{fill:url(#SVGID_1_);}
	.st1{fill:url(#SVGID_2_);}
	.st2{fill:#FFFFFF;}
</style>
<linearGradient id="SVGID_1_" gradientUnits="userSpaceOnUse" x1="-2415.4131" y1="1314.3976" x2="-2178.2351" y2="-30.7057" gradientTransform="matrix(-1 0 0 -1 -1645.4375 1292.1875)">
	<stop  offset="0" style="stop-color:#F9AC41"/>
	<stop  offset="1" style="stop-color:#EE3D30"/>
</linearGradient>
<path class="st0" d="M301.9,22.8h699c153.5,0,278,124.5,278,278v699c0,153.5-124.5,278-278,278h-699c-153.5,0-278-124.5-278-278
	v-699C23.9,147.3,148.4,22.8,301.9,22.8z"/>
<linearGradient id="SVGID_2_" gradientUnits="userSpaceOnUse" x1="664.0621" y1="43.0317" x2="490.4914" y2="1027.4001">
	<stop  offset="0" style="stop-color:#E19E3A"/>
	<stop  offset="1" style="stop-color:#D23829"/>
</linearGradient>
<path class="st1" d="M1083.2,1049.7c0,0-48.7-81.2-130-81.2c-78.5,0-124.6,81.2-283,81.2c-350.6,0-517.2-291.5-518.5-293.8
	c0,0,0,0,0,0L22.9,617.2V300.7c0-153.5,124.5-278,278-278H549l183.5,186.1c0,0,0,0,0,0c414.3,281.6,280.2,591.6,280.2,591.6
	S1130.6,933.2,1083.2,1049.7z"/>
<path class="st2" d="M733.6,209c414.3,281.6,280.3,591.7,280.3,591.7s117.8,132.7,70.4,249.1c0,0-48.7-81.2-130-81.2
	c-78.5,0-124.6,81.2-283,81.2c-352,0-518.5-293.8-518.5-293.8c317,208.9,533.4,60.9,533.4,60.9c-143-83.1-446.8-479.3-446.8-479.3
	c264.8,225.2,379.1,284.3,379.1,284.3c-68.4-56.3-260-331.7-260-331.7c153.3,155.1,457.6,371,457.6,371
	C903,422.5,733.6,209,733.6,209z"/>
</svg>
