<?xml version="1.0" encoding="utf-8"?>
<!-- Generator: Adobe Illustrator 19.2.1, SVG Export Plug-In . SVG Version: 6.00 Build 0)  -->
<!DOCTYPE svg PUBLIC "-//W3C//DTD SVG 1.1//EN" "http://www.w3.org/Graphics/SVG/1.1/DTD/svg11.dtd">
<svg version="1.1" id="Layer_1" xmlns="http://www.w3.org/2000/svg" xmlns:xlink="http://www.w3.org/1999/xlink" x="0px" y="0px"
	 viewBox="0 0 130 104" style="enable-background:new 0 0 130 104;" xml:space="preserve">
<style type="text/css">
	.st0{fill:#323232;}
</style>
<g>
	<path class="st0" d="M120.9,36.4l0-1.5L63.7,23.6l-0.3,0L9.1,34.9l0,1.5l55.1,10.4h0.3l49.6-9.2v22.7c-1.7,0.3-3,1.8-3,3.6
		c0,1.7,1.2,3.2,2.8,3.6l-4,11.9l0.7,1h9.2l0.7-1l-4.7-11.9c1.6-0.4,2.7-1.9,2.7-3.6c0-1.8-1.3-3.3-3-3.6v-23L120.9,36.4z
		 M111.8,78.9l3.2-9.6l3.8,9.6H111.8z M117.1,63.9c0,1.2-1,2.2-2.2,2.2s-2.2-1-2.2-2.2s1-2.2,2.2-2.2S117.1,62.7,117.1,63.9z
		 M64.4,45.3l-51.3-9.7l50.4-10.5l53.2,10.5L64.4,45.3z"/>
	<path class="st0" d="M32.7,43.9V68l0.2,0.2c0.3,0.3,6.8,8.2,31.5,8.2c24.7,0,32.4-7,32.7-7.3l0.2-0.2v-25L64,50.3L32.7,43.9z
		 M95.8,68.3C94.3,69.4,86,75,64.4,75c-21.8,0-29-6.3-30.2-7.5V45.7l29.6,6.1l0.1,0l31.8-6.1V68.3z"/>
</g>
</svg>
