<svg version="1.1" id="Layer_1" xmlns="http://www.w3.org/2000/svg" xmlns:xlink="http://www.w3.org/1999/xlink" x="0px" y="0px"
	 viewBox="-139 51 512 512" style="enable-background:new -139 51 512 512;" xml:space="preserve">
<g>
	<path d="M216.6,377c-45.7-9.2-85.4-24.8-117.8-46.4c-26-17.3-47.5-38.5-63.8-62.9C7.2,226,4.1,189.8,4,188.2l6-0.5
		c0,0.5,3.2,36.5,30.2,76.9c15.9,23.7,36.8,44.3,62.1,61.1c31.7,21.1,70.6,36.3,115.5,45.4L216.6,377z M7,188l3-0.2c0,0,0,0,0,0
		L7,188z"/>
</g>
<g>
	<polygon points="121.3,426.4 118.6,421.1 212.7,372.9 164.6,278.2 170,275.5 220.7,375.5 	"/>
</g>
<polygon points="11,404 -87,404 -87,99 220,99 220,198 226,198 226,93 -93,93 -93,410 11,410 "/>
<path d="M53.5,195c0.6,2,1.3,4,2.1,6H321v305H14V303.4c-2-2-4-4.2-6-6.5V512h319V195H53.5z"/>
</svg>
