<svg version="1.1" id="Layer_1" xmlns="http://www.w3.org/2000/svg" xmlns:xlink="http://www.w3.org/1999/xlink" x="0px" y="0px"
	 viewBox="-139 51 512 512" style="enable-background:new -139 51 512 512;" xml:space="preserve">
<g>
	<path d="M129.4,536.7c-30.1,0-58.9-11.3-80.9-31.8c-21.9-20.3-35.3-47.9-37.7-77.6c-0.3-1.4-0.4-2.8-0.4-4.3V198.3
		c0-12.1,9.9-22,22-22h2.1c11.8,0,21,9.7,21,22v95.6H59V130.4c0-12.9,9.7-23.1,22.1-23.1s22.1,10.1,22.1,23.1v163.4h3.6V98.8
		c0-12.9,9.7-23.1,22.1-23.1s22.1,10.1,22.1,23.1v195.1h3.6V129c0-12.3,9.2-22,20.9-22h2.2c11.7,0,20.9,9.6,20.9,22v192.4
		c1.7,1.1,4.3,2.4,6.7,3.6v-83.1l0.1-0.4c5.4-16.4,17.3-25.8,32.6-25.8c2.7,0,5.5,0.3,8.2,0.9l1.7,0.4l0.2,1.7
		c0.1,1,0.2,1.9,0.2,2.7v187.8c0,0.6,0,1.3-0.1,1.9c0.1,2.3,0.2,4.4,0.2,6.4C248.4,483.3,195,536.7,129.4,536.7z M32.3,181.3
		c-9.4,0-17,7.6-17,17V423c0,1.2,0.1,2.3,0.4,3.4l0,0.3c2.3,28.5,15.1,55,36.1,74.5c21.1,19.6,48.7,30.4,77.5,30.4
		c62.9,0,114-51.2,114-114c0-2-0.1-4.1-0.2-6.3l0-0.2l0-0.2c0.1-0.5,0.1-1.1,0.1-1.6V221.5c0-0.1,0-0.2,0-0.3
		c-1.8-0.3-3.6-0.5-5.4-0.5c-7.6,0-21.3,2.9-27.7,22v89.7l-3.4-1.3c-3.6-1.4-9.3-4.2-12.3-6.3l-1-0.7V129c0-9.7-6.9-17-15.9-17h-2.2
		c-9.1,0-15.9,7.3-15.9,17v169.8h-13.6V98.8c0-10.3-7.3-18.1-17.1-18.1s-17.1,7.8-17.1,18.1v200.1H98.1V130.4
		c0-10.3-7.3-18.1-17.1-18.1c-9.7,0-17.1,7.8-17.1,18.1v168.4H50.4V198.3c0-9.7-6.9-17-16-17H32.3z M129.4,503.6l-1.6-1.2
		c-0.6-0.5-59.6-47.7-81.3-68.1c-13.7-12.9-18.3-36-10.8-54.9c6.6-16.7,21.4-26.3,40.5-26.3c33.5,0,47.7,20.7,53.2,33.1
		c5.5-12.4,19.7-33.1,53.2-33.1c19.1,0,33.8,9.6,40.5,26.3c7.5,18.9,2.9,41.9-10.8,54.9h0c-21.7,20.4-80.7,67.6-81.3,68.1
		L129.4,503.6z M76.2,358.1c-23.2,0-32.4,14.5-35.8,23.1c-6.6,16.7-2.5,38,9.6,49.4c19.5,18.4,69.9,58.9,79.4,66.6
		c9.5-7.6,59.9-48.2,79.4-66.6l1.7,1.8l-1.7-1.8c12.1-11.4,16.2-32.6,9.6-49.4c-3.4-8.6-12.6-23.1-35.8-23.1
		c-37.1,0-48.3,27.5-50.8,36l-2.4,8l-2.4-8C124.4,385.6,113.3,358.1,76.2,358.1z"/>
</g>
</svg>
