<svg version="1.1" id="Layer_1" xmlns="http://www.w3.org/2000/svg" xmlns:xlink="http://www.w3.org/1999/xlink" x="0px" y="0px"
	 viewBox="-139 51 512 512" style="enable-background:new -139 51 512 512;" xml:space="preserve">
<path id="stackoverflow-icon" d="M168.8,457.9L6.2,458l0-34.7l162.6-0.1L168.8,457.9z M278.7,261.2L250.8,101l-34.2,5.9l27.8,160.2
	L278.7,261.2z M172.7,378.6L10.8,363.7l-3.2,34.6l161.9,14.9L172.7,378.6z M183.4,333.3l-157-42.2l-9,33.5l157,42.2L183.4,333.3z
	 M203.9,293.6L63.8,211l-17.7,29.9l140.1,82.6L203.9,293.6z M238.2,269.3l-91.6-134.3l-28.7,19.6l91.6,134.3L238.2,269.3z
	 M196.4,343.6v142H-16.9v-142h-27.8v169.2H224V343.6H196.4z"/>
</svg>
