<svg version="1.1" id="Layer_1" xmlns="http://www.w3.org/2000/svg" xmlns:xlink="http://www.w3.org/1999/xlink" x="0px" y="0px"
	 viewBox="-139 51 512 512" style="enable-background:new -139 51 512 512;" xml:space="preserve">
<style type="text/css">
	.st0{fill:#3B3737;}
</style>
<g id="bug-5-icon">
	<path class="st0" d="M114.3,516l-0.3,0c-44.4-5-84-30.9-105.9-69.2c-3.5-6.2-9.6-4-11.4-3.2l-43.3,19.6c-5.1,2.3-10.7,2.5-15.9,0.5
		c-5.2-2-9.3-5.8-11.6-10.9c-2.3-5.1-2.5-10.7-0.5-15.9c2-5.2,5.8-9.3,10.9-11.6l40.9-18.5c8.5-3.8,12.5-11.8,11-21.9
		c-1.6-10.7-10.7-15.6-18.4-15.6h-40.3c-11.5,0-20.8-9.3-20.8-20.8s9.3-20.8,20.8-20.8h40.6c7.2,0,16.2-4.3,17.9-16.5
		c1.1-8-3.5-15.6-11.2-18.7l-37.7-14.9c-5.2-2-9.2-6-11.5-11.1s-2.3-10.8-0.3-15.9c2-5.2,6-9.2,11.1-11.5c5.1-2.2,10.8-2.3,15.9-0.3
		l38.8,15.3c2.4,1,8.5,2.3,12.1-5.9c3.8-8.8,8.1-16.9,12.8-24.3l1.4-2.2l2.4,1.1c35,15.8,64.5,23.1,92.7,23.1
		c28.2,0,57.7-7.3,92.7-23.1l2.4-1.1l1.4,2.2c4.8,7.5,9.2,15.9,13.1,24.9c2.7,6.3,8,6.8,11.8,5.3l38.8-15.3c5.2-2,10.8-1.9,15.9,0.3
		c5.1,2.2,9,6.3,11.1,11.5c2,5.2,1.9,10.8-0.3,15.9c-2.2,5.1-6.3,9-11.5,11.1l-37.7,14.9c-8.2,3.2-12.5,11.2-10.9,20.2l0.6,3.5
		l-3.7,0c-61.6,0-111.7,50.1-111.7,111.7c0,27,9.8,53.1,27.7,73.5l2.8,3.1l-3.9,1.6c-12.1,5-25,8.3-38.2,9.8L114.3,516z M1,436.6
		c4.6,0,9.2,2.1,12.1,7.2c20.9,36.5,58.7,61.3,101.1,66.2c11.2-1.3,22-3.9,32.4-7.8c-17.1-21-26.5-47.2-26.5-74.2
		c0-63.8,51.1-115.9,114.5-117.6c-0.5-10.5,5.2-19.5,15-23.4l37.7-14.9c3.7-1.5,6.6-4.2,8.1-7.9c1.6-3.6,1.6-7.7,0.2-11.3
		c-1.5-3.7-4.2-6.6-7.9-8.1c-3.6-1.6-7.7-1.6-11.3-0.2l-38.8,15.3c-6.5,2.6-15.4,1-19.5-8.5c-3.4-7.8-7.2-15.2-11.2-21.8
		c-34.8,15.4-64.3,22.6-92.8,22.6c-28.5,0-58-7.2-92.8-22.6c-4,6.5-7.7,13.6-11,21.2c-4.6,10.7-13.5,11.6-19.8,9.1L-48,244.5
		c-3.7-1.5-7.7-1.4-11.3,0.2c-3.6,1.6-6.4,4.5-7.9,8.2c-1.5,3.7-1.4,7.7,0.2,11.3s4.5,6.4,8.1,7.9l37.7,14.9
		C-10.9,291-4.8,301.3-6.3,312c-2.1,15-13.5,21.7-23.8,21.7h-40.6c-8.2,0-14.8,6.6-14.8,14.8s6.6,14.8,14.8,14.8h40.3
		c10.2,0,22.2,6.5,24.3,20.7c1.9,12.7-3.4,23.3-14.4,28.3l-40.9,18.5c-3.6,1.6-6.4,4.6-7.8,8.3c-1.4,3.7-1.3,7.7,0.4,11.3
		c1.6,3.6,4.6,6.4,8.3,7.8c3.7,1.4,7.7,1.3,11.3-0.4l43.3-19.6C-3.7,437.2-1.4,436.6,1,436.6z M114.3,227.8
		c-25.3,0-50.5-5.3-70.7-15.8l-3.2-1.7l2.2-2.8c1.4-1.8,2.8-3.5,4.2-5.2c12-14.9,22.3-27.7,13.5-42.6c-2.4-4.1-6.4-7-11.1-8
		C37,148.9,28,137.8,28,125.2c0-15,12.2-27.2,27.2-27.2c8.5,0,16.4,3.9,21.6,10.7c5.2,6.8,6.9,15.4,4.7,23.6c-1.3,5-0.6,10.3,2,14.8
		c6.5,10.9,17.4,17,30.8,17c13.4-0.1,24.3-6.1,30.8-17c2.6-4.4,3.4-9.8,2-14.8c-2.2-8.2-0.5-16.8,4.7-23.6
		c5.2-6.8,13-10.7,21.6-10.7c15,0,27.2,12.2,27.2,27.2c0,12.6-8.9,23.8-21.2,26.5c-4.6,1-8.6,4-11.1,8c-8.8,14.8,2.1,28.5,13.7,42.9
		c1.3,1.7,2.7,3.3,4,5l2.2,2.8l-3.2,1.7C164.8,222.6,139.5,227.8,114.3,227.8z M49.6,208.4c37.6,18.1,91.7,18.1,129.3,0
		c-0.5-0.7-1.1-1.3-1.6-2c-11.8-14.7-25.2-31.3-14.2-49.7c3.3-5.5,8.7-9.4,14.9-10.8c9.6-2.1,16.5-10.8,16.5-20.7
		c0-11.7-9.5-21.2-21.2-21.2c-6.6,0-12.8,3-16.8,8.3c-4,5.3-5.4,12-3.6,18.4c1.8,6.5,0.8,13.6-2.6,19.4c-7.6,12.8-20.4,19.9-36,20
		c-15.6-0.1-28.4-7.2-36-20c-3.4-5.8-4.4-12.9-2.6-19.4c1.7-6.4,0.4-13.1-3.6-18.4c-4-5.3-10.2-8.3-16.8-8.3
		c-11.7,0-21.2,9.5-21.2,21.2c0,9.8,7,18.5,16.5,20.7c6.2,1.4,11.6,5.3,14.9,10.8c11,18.5-1.7,34.2-14,49.4
		C50.9,206.8,50.2,207.6,49.6,208.4z"/>
</g>
<g>
	<g>
		<g>
			
				<rect x="235" y="370.6" transform="matrix(0.6938 0.7202 -0.7202 0.6938 380.7495 -40.4994)" class="st0" width="6" height="113.9"/>
		</g>
		<g>
			
				<rect x="179.9" y="424" transform="matrix(0.7028 0.7114 -0.7114 0.7028 374.3778 -42.042)" class="st0" width="115.3" height="6"/>
		</g>
	</g>
	<g>
		<path class="st0" d="M237.9,512.6c-48.3,0-87.7-39.3-87.7-87.7c0-48.3,39.3-87.7,87.7-87.7s87.7,39.3,87.7,87.7
			C325.5,473.2,286.2,512.6,237.9,512.6z M237.9,343.2c-45,0-81.7,36.6-81.7,81.7c0,45,36.6,81.7,81.7,81.7s81.7-36.6,81.7-81.7
			C319.5,379.9,282.9,343.2,237.9,343.2z"/>
	</g>
</g>
</svg>
