<svg version="1.1" id="Layer_1" xmlns="http://www.w3.org/2000/svg" xmlns:xlink="http://www.w3.org/1999/xlink" x="0px" y="0px"
	 viewBox="-139 51 512 512" style="enable-background:new -139 51 512 512;" xml:space="preserve">
<g id="thumb-9-icon">
	<path d="M225.1,504.8c-5.7,0-11.7-0.4-18.1-1.1c-22.8-2.6-39.9-9.1-58-16c-27.2-10.4-58-22.1-115.8-22.1h-2.5V297.9l2.2-0.3
		C124,285.8,146.2,214.8,164,157.9l0.1-0.2c0.6-1.8,1.1-3.7,1.7-5.7c6.2-20.7,14.7-49,40.7-41.5c6.5,1.9,11.8,6.7,15.7,14.3
		c6.4,12.6,9,33.2,7.3,58.2c-1.6,22.3-6.5,46.5-13.5,66.9c29.2,20.5,64.1,27.9,106.7,22.6l3-0.4l-0.2,3
		c-1.3,19.6-3.7,36.3-19.2,40.7l-17.3,4.6c-2.2,0.7-4.1,2.2-5.2,4.3c-1.1,2.1-1.4,4.5-0.7,6.8c0.7,2.3,2.2,4.2,4.4,5.3
		c2.1,1.1,4.5,1.4,6.8,0.7l21.8-6.5l-0.8,5c-3.6,23.6-5.8,37.9-23.3,43.2l-12.9,4.1c-4.8,1.4-7.4,6.5-6,11.2
		c0.7,2.3,2.2,4.2,4.4,5.3c2.1,1.1,4.5,1.4,6.8,0.7l20.5-7l-0.5,4c-2.8,21.2-5,37.9-22.4,43.2l-12.7,4.6c-2.3,0.7-4.2,2.2-5.3,4.3
		c-1.1,2.1-1.4,4.5-0.7,6.8c0.7,2.3,2.2,4.2,4.4,5.3c2.1,1.1,4.5,1.4,6.8,0.7l17.4-6.1l-0.6,4.1
		C286.9,489.1,263.2,504.8,225.1,504.8z M35.7,460.7c57.1,0.3,87.9,12,115.1,22.4c17.8,6.8,34.6,13.2,56.8,15.7h0
		c21.7,2.4,40.2,0.5,53.5-5.7c13-6,21.2-15.9,24.2-29.4l-9.6,3.4c-3.6,1.1-7.3,0.7-10.6-1c-3.3-1.8-5.7-4.7-6.8-8.3
		c-1.1-3.6-0.7-7.4,1.1-10.6c1.7-3.3,4.7-5.7,8.2-6.8l12.7-4.6c12.9-3.9,15.6-14.8,18.4-35.1l-12.9,4.4c-3.6,1.1-7.4,0.7-10.7-1
		c-3.3-1.8-5.7-4.7-6.8-8.3c-2.2-7.4,2-15.2,9.3-17.4l12.9-4.1c14-4.2,16.2-15.1,19.4-36.4l-14.2,4.3c-3.6,1.1-7.3,0.7-10.6-1.1
		c-3.3-1.8-5.7-4.7-6.8-8.3c-1.1-3.6-0.7-7.3,1-10.6c1.8-3.3,4.7-5.7,8.3-6.8l17.3-4.6c11.7-3.3,14-16.3,15.3-33.2
		c-8,0.9-15.8,1.4-23.3,1.4c-33,0-61.1-8.7-85.4-26.3l-1.5-1.1l0.6-1.8c13.9-38.7,20.5-96.6,7.1-122.8c-3.3-6.4-7.5-10.3-12.7-11.8
		c-19.7-5.7-27,13.1-34.6,38.2c-0.6,2-1.2,3.9-1.8,5.7l-0.1,0.2c-8.9,28.6-19.1,61-38.8,88.2c-22.6,31.1-53.5,49-94.3,54.8V460.7z
		 M5.4,477.8h-96.9V280.9H5.4V477.8z M-86.5,472.8H0.4V285.9h-86.9V472.8z M-43,451.6c-9.7,0-17.6-7.9-17.6-17.6s7.9-17.6,17.6-17.6
		s17.6,7.9,17.6,17.6S-33.4,451.6-43,451.6z M-43,421.5c-6.9,0-12.6,5.6-12.6,12.6s5.6,12.6,12.6,12.6s12.6-5.6,12.6-12.6
		S-36.1,421.5-43,421.5z"/>
</g>
</svg>
